solid Untitled-5672cfe1
facet normal -0.38268343236508945 0.923879532511287 0.0
  outer loop
    vertex 0.9058666578588225 -3.380740392011738 29.999999999999996
    vertex 1.7499999999999993 -3.031088913245535 0.0
    vertex 0.9058666578588225 -3.380740392011738 0.0
  endloop
endfacet
facet normal -0.38268343236508945 0.923879532511287 0.0
  outer loop
    vertex 1.7499999999999993 -3.031088913245535 0.0
    vertex 0.9058666578588225 -3.380740392011738 29.999999999999996
    vertex 1.7499999999999993 -3.031088913245535 29.999999999999996
  endloop
endfacet
facet normal -0.608761429008721 0.793353340291235 0.0
  outer loop
    vertex 1.7499999999999993 -3.031088913245535 29.999999999999996
    vertex 2.4748737341529154 -2.474873734152916 0.0
    vertex 1.7499999999999993 -3.031088913245535 0.0
  endloop
endfacet
facet normal -0.608761429008721 0.793353340291235 0.0
  outer loop
    vertex 2.4748737341529154 -2.474873734152916 0.0
    vertex 1.7499999999999993 -3.031088913245535 29.999999999999996
    vertex 2.4748737341529154 -2.474873734152916 29.999999999999996
  endloop
endfacet
facet normal -0.793353340291235 0.6087614290087208 0.0
  outer loop
    vertex 3.0310889132455343 -1.75 29.999999999999996
    vertex 2.4748737341529154 -2.474873734152916 0.0
    vertex 2.4748737341529154 -2.474873734152916 29.999999999999996
  endloop
endfacet
facet normal -0.793353340291235 0.6087614290087208 0.0
  outer loop
    vertex 2.4748737341529154 -2.474873734152916 0.0
    vertex 3.0310889132455343 -1.75 29.999999999999996
    vertex 3.0310889132455343 -1.75 0.0
  endloop
endfacet
facet normal -0.9238795325112866 0.38268343236509006 0.0
  outer loop
    vertex 3.380740392011738 -0.9058666578588231 29.999999999999996
    vertex 3.0310889132455343 -1.75 0.0
    vertex 3.0310889132455343 -1.75 29.999999999999996
  endloop
endfacet
facet normal -0.9238795325112866 0.38268343236509006 0.0
  outer loop
    vertex 3.0310889132455343 -1.75 0.0
    vertex 3.380740392011738 -0.9058666578588231 29.999999999999996
    vertex 3.380740392011738 -0.9058666578588231 0.0
  endloop
endfacet
facet normal -0.9914448613738105 0.1305261922200517 0.0
  outer loop
    vertex 3.499999999999999 -2.1431318985078676e-16 29.999999999999996
    vertex 3.380740392011738 -0.9058666578588231 0.0
    vertex 3.380740392011738 -0.9058666578588231 29.999999999999996
  endloop
endfacet
facet normal -0.9914448613738105 0.1305261922200517 0.0
  outer loop
    vertex 3.380740392011738 -0.9058666578588231 0.0
    vertex 3.499999999999999 -2.1431318985078676e-16 29.999999999999996
    vertex 3.499999999999999 -2.1431318985078676e-16 0.0
  endloop
endfacet
facet normal -0.9914448613738104 -0.13052619222005182 -0.0
  outer loop
    vertex 3.380740392011738 0.9058666578588219 29.999999999999996
    vertex 3.499999999999999 -2.1431318985078676e-16 0.0
    vertex 3.499999999999999 -2.1431318985078676e-16 29.999999999999996
  endloop
endfacet
facet normal -0.9914448613738104 -0.13052619222005182 -0.0
  outer loop
    vertex 3.499999999999999 -2.1431318985078676e-16 0.0
    vertex 3.380740392011738 0.9058666578588219 29.999999999999996
    vertex 3.380740392011738 0.9058666578588219 0.0
  endloop
endfacet
facet normal -0.923879532511287 -0.38268343236508934 -0.0
  outer loop
    vertex 3.031088913245535 1.749999999999999 29.999999999999996
    vertex 3.380740392011738 0.9058666578588219 0.0
    vertex 3.380740392011738 0.9058666578588219 29.999999999999996
  endloop
endfacet
facet normal -0.923879532511287 -0.38268343236508934 -0.0
  outer loop
    vertex 3.380740392011738 0.9058666578588219 0.0
    vertex 3.031088913245535 1.749999999999999 29.999999999999996
    vertex 3.031088913245535 1.749999999999999 0.0
  endloop
endfacet
facet normal -0.7933533402912352 -0.6087614290087208 -0.0
  outer loop
    vertex 2.474873734152916 2.4748737341529154 29.999999999999996
    vertex 3.031088913245535 1.749999999999999 0.0
    vertex 3.031088913245535 1.749999999999999 29.999999999999996
  endloop
endfacet
facet normal -0.7933533402912352 -0.6087614290087208 -0.0
  outer loop
    vertex 3.031088913245535 1.749999999999999 0.0
    vertex 2.474873734152916 2.4748737341529154 29.999999999999996
    vertex 2.474873734152916 2.4748737341529154 0.0
  endloop
endfacet
facet normal -0.608761429008721 -0.793353340291235 -0.0
  outer loop
    vertex 2.474873734152916 2.4748737341529154 29.999999999999996
    vertex 1.7500000000000007 3.031088913245534 0.0
    vertex 2.474873734152916 2.4748737341529154 0.0
  endloop
endfacet
facet normal -0.608761429008721 -0.793353340291235 -0.0
  outer loop
    vertex 1.7500000000000007 3.031088913245534 0.0
    vertex 2.474873734152916 2.4748737341529154 29.999999999999996
    vertex 1.7500000000000007 3.031088913245534 29.999999999999996
  endloop
endfacet
facet normal -0.38268343236509017 -0.9238795325112866 -0.0
  outer loop
    vertex 1.7500000000000007 3.031088913245534 29.999999999999996
    vertex 0.9058666578588234 3.380740392011738 0.0
    vertex 1.7500000000000007 3.031088913245534 0.0
  endloop
endfacet
facet normal -0.38268343236509017 -0.9238795325112866 -0.0
  outer loop
    vertex 0.9058666578588234 3.380740392011738 0.0
    vertex 1.7500000000000007 3.031088913245534 29.999999999999996
    vertex 0.9058666578588234 3.380740392011738 29.999999999999996
  endloop
endfacet
facet normal -0.1305261922200517 -0.9914448613738105 -0.0
  outer loop
    vertex 0.9058666578588234 3.380740392011738 29.999999999999996
    vertex 4.286263797015735e-16 3.499999999999999 0.0
    vertex 0.9058666578588234 3.380740392011738 0.0
  endloop
endfacet
facet normal -0.1305261922200517 -0.9914448613738105 -0.0
  outer loop
    vertex 4.286263797015735e-16 3.499999999999999 0.0
    vertex 0.9058666578588234 3.380740392011738 29.999999999999996
    vertex 4.286263797015735e-16 3.499999999999999 29.999999999999996
  endloop
endfacet
facet normal 0.13052619222005118 -0.9914448613738106 0.0
  outer loop
    vertex 4.286263797015735e-16 3.499999999999999 29.999999999999996
    vertex -0.905866657858821 3.380740392011739 0.0
    vertex 4.286263797015735e-16 3.499999999999999 0.0
  endloop
endfacet
facet normal 0.13052619222005118 -0.9914448613738106 0.0
  outer loop
    vertex -0.905866657858821 3.380740392011739 0.0
    vertex 4.286263797015735e-16 3.499999999999999 29.999999999999996
    vertex -0.905866657858821 3.380740392011739 29.999999999999996
  endloop
endfacet
facet normal 0.3826834323650894 -0.9238795325112868 0.0
  outer loop
    vertex -0.905866657858821 3.380740392011739 29.999999999999996
    vertex -1.7499999999999984 3.031088913245535 0.0
    vertex -0.905866657858821 3.380740392011739 0.0
  endloop
endfacet
facet normal 0.3826834323650894 -0.9238795325112868 0.0
  outer loop
    vertex -1.7499999999999984 3.031088913245535 0.0
    vertex -0.905866657858821 3.380740392011739 29.999999999999996
    vertex -1.7499999999999984 3.031088913245535 29.999999999999996
  endloop
endfacet
facet normal 0.6087614290087203 -0.7933533402912354 0.0
  outer loop
    vertex -1.7499999999999984 3.031088913245535 29.999999999999996
    vertex -2.4748737341529146 2.4748737341529172 0.0
    vertex -1.7499999999999984 3.031088913245535 0.0
  endloop
endfacet
facet normal 0.6087614290087203 -0.7933533402912354 0.0
  outer loop
    vertex -2.4748737341529146 2.4748737341529172 0.0
    vertex -1.7499999999999984 3.031088913245535 29.999999999999996
    vertex -2.4748737341529146 2.4748737341529172 29.999999999999996
  endloop
endfacet
facet normal 0.793353340291235 -0.608761429008721 0.0
  outer loop
    vertex -2.4748737341529146 2.4748737341529172 0.0
    vertex -3.0310889132455334 1.750000000000001 29.999999999999996
    vertex -3.0310889132455334 1.750000000000001 0.0
  endloop
endfacet
facet normal 0.793353340291235 -0.608761429008721 0.0
  outer loop
    vertex -3.0310889132455334 1.750000000000001 29.999999999999996
    vertex -2.4748737341529146 2.4748737341529172 0.0
    vertex -2.4748737341529146 2.4748737341529172 29.999999999999996
  endloop
endfacet
facet normal 0.9238795325112865 -0.3826834323650904 0.0
  outer loop
    vertex -3.0310889132455334 1.750000000000001 0.0
    vertex -3.3807403920117376 0.9058666578588251 29.999999999999996
    vertex -3.3807403920117376 0.9058666578588251 0.0
  endloop
endfacet
facet normal 0.9238795325112865 -0.3826834323650904 0.0
  outer loop
    vertex -3.3807403920117376 0.9058666578588251 29.999999999999996
    vertex -3.0310889132455334 1.750000000000001 0.0
    vertex -3.0310889132455334 1.750000000000001 29.999999999999996
  endloop
endfacet
facet normal 0.9914448613738105 -0.13052619222005227 0.0
  outer loop
    vertex -3.3807403920117376 0.9058666578588251 0.0
    vertex -3.499999999999999 6.429395695523602e-16 29.999999999999996
    vertex -3.499999999999999 6.429395695523602e-16 0.0
  endloop
endfacet
facet normal 0.9914448613738105 -0.13052619222005227 0.0
  outer loop
    vertex -3.499999999999999 6.429395695523602e-16 29.999999999999996
    vertex -3.3807403920117376 0.9058666578588251 0.0
    vertex -3.3807403920117376 0.9058666578588251 29.999999999999996
  endloop
endfacet
facet normal 0.9914448613738105 0.13052619222005113 0.0
  outer loop
    vertex -3.499999999999999 6.429395695523602e-16 0.0
    vertex -3.380740392011739 -0.9058666578588209 29.999999999999996
    vertex -3.380740392011739 -0.9058666578588209 0.0
  endloop
endfacet
facet normal 0.9914448613738105 0.13052619222005113 0.0
  outer loop
    vertex -3.380740392011739 -0.9058666578588209 29.999999999999996
    vertex -3.499999999999999 6.429395695523602e-16 0.0
    vertex -3.499999999999999 6.429395695523602e-16 29.999999999999996
  endloop
endfacet
facet normal 0.9238795325112871 0.38268343236508934 0.0
  outer loop
    vertex -3.380740392011739 -0.9058666578588209 0.0
    vertex -3.031088913245536 -1.7499999999999971 29.999999999999996
    vertex -3.031088913245536 -1.7499999999999971 0.0
  endloop
endfacet
facet normal 0.9238795325112871 0.38268343236508934 0.0
  outer loop
    vertex -3.031088913245536 -1.7499999999999971 29.999999999999996
    vertex -3.380740392011739 -0.9058666578588209 0.0
    vertex -3.380740392011739 -0.9058666578588209 29.999999999999996
  endloop
endfacet
facet normal 0.7933533402912355 0.6087614290087202 0.0
  outer loop
    vertex -3.031088913245536 -1.7499999999999971 0.0
    vertex -2.4748737341529163 -2.474873734152915 29.999999999999996
    vertex -2.4748737341529163 -2.474873734152915 0.0
  endloop
endfacet
facet normal 0.7933533402912355 0.6087614290087202 0.0
  outer loop
    vertex -2.4748737341529163 -2.474873734152915 29.999999999999996
    vertex -3.031088913245536 -1.7499999999999971 0.0
    vertex -3.031088913245536 -1.7499999999999971 29.999999999999996
  endloop
endfacet
facet normal 0.6087614290087208 0.793353340291235 0.0
  outer loop
    vertex -2.4748737341529163 -2.474873734152915 29.999999999999996
    vertex -1.750000000000001 -3.0310889132455334 0.0
    vertex -2.4748737341529163 -2.474873734152915 0.0
  endloop
endfacet
facet normal 0.6087614290087208 0.793353340291235 0.0
  outer loop
    vertex -1.750000000000001 -3.0310889132455334 0.0
    vertex -2.4748737341529163 -2.474873734152915 29.999999999999996
    vertex -1.750000000000001 -3.0310889132455334 29.999999999999996
  endloop
endfacet
facet normal 0.3826834323650905 0.9238795325112865 0.0
  outer loop
    vertex -1.750000000000001 -3.0310889132455334 29.999999999999996
    vertex -0.9058666578588253 -3.3807403920117376 0.0
    vertex -1.750000000000001 -3.0310889132455334 0.0
  endloop
endfacet
facet normal 0.3826834323650905 0.9238795325112865 0.0
  outer loop
    vertex -0.9058666578588253 -3.3807403920117376 0.0
    vertex -1.750000000000001 -3.0310889132455334 29.999999999999996
    vertex -0.9058666578588253 -3.3807403920117376 29.999999999999996
  endloop
endfacet
facet normal 0.13052619222005213 0.9914448613738104 0.0
  outer loop
    vertex -0.9058666578588253 -3.3807403920117376 29.999999999999996
    vertex 0.0 -3.499999999999999 0.0
    vertex -0.9058666578588253 -3.3807403920117376 0.0
  endloop
endfacet
facet normal 0.13052619222005213 0.9914448613738104 0.0
  outer loop
    vertex 0.0 -3.499999999999999 0.0
    vertex -0.9058666578588253 -3.3807403920117376 29.999999999999996
    vertex 0.0 -3.499999999999999 29.999999999999996
  endloop
endfacet
facet normal -0.13052619222005177 0.9914448613738104 0.0
  outer loop
    vertex 0.0 -3.499999999999999 29.999999999999996
    vertex 0.9058666578588225 -3.380740392011738 0.0
    vertex 0.0 -3.499999999999999 0.0
  endloop
endfacet
facet normal -0.13052619222005177 0.9914448613738104 0.0
  outer loop
    vertex 0.9058666578588225 -3.380740392011738 0.0
    vertex 0.0 -3.499999999999999 29.999999999999996
    vertex 0.9058666578588225 -3.380740392011738 29.999999999999996
  endloop
endfacet
facet normal -8.114500982340371e-32 3.2458003929361483e-31 -1.0
  outer loop
    vertex -3.3807403920117376 0.9058666578588251 29.999999999999996
    vertex -3.380740392011739 -0.9058666578588209 29.999999999999996
    vertex -3.499999999999999 6.429395695523602e-16 29.999999999999996
  endloop
endfacet
facet normal -8.114500982340371e-32 3.2458003929361483e-31 -1.0
  outer loop
    vertex -3.380740392011739 -0.9058666578588209 29.999999999999996
    vertex -3.3807403920117376 0.9058666578588251 29.999999999999996
    vertex -3.031088913245536 -1.7499999999999971 29.999999999999996
  endloop
endfacet
facet normal -8.114500982340371e-32 3.2458003929361483e-31 -1.0
  outer loop
    vertex -3.031088913245536 -1.7499999999999971 29.999999999999996
    vertex -3.3807403920117376 0.9058666578588251 29.999999999999996
    vertex -3.0310889132455334 1.750000000000001 29.999999999999996
  endloop
endfacet
facet normal -8.114500982340371e-32 3.2458003929361483e-31 -1.0
  outer loop
    vertex -3.031088913245536 -1.7499999999999971 29.999999999999996
    vertex -3.0310889132455334 1.750000000000001 29.999999999999996
    vertex -2.4748737341529163 -2.474873734152915 29.999999999999996
  endloop
endfacet
facet normal -8.114500982340371e-32 3.2458003929361483e-31 -1.0
  outer loop
    vertex -2.4748737341529163 -2.474873734152915 29.999999999999996
    vertex -3.0310889132455334 1.750000000000001 29.999999999999996
    vertex -2.4748737341529146 2.4748737341529172 29.999999999999996
  endloop
endfacet
facet normal -8.114500982340371e-32 3.2458003929361483e-31 -1.0
  outer loop
    vertex -2.4748737341529163 -2.474873734152915 29.999999999999996
    vertex -2.4748737341529146 2.4748737341529172 29.999999999999996
    vertex -1.750000000000001 -3.0310889132455334 29.999999999999996
  endloop
endfacet
facet normal -8.114500982340371e-32 3.2458003929361483e-31 -1.0
  outer loop
    vertex -1.750000000000001 -3.0310889132455334 29.999999999999996
    vertex -2.4748737341529146 2.4748737341529172 29.999999999999996
    vertex -1.7499999999999984 3.031088913245535 29.999999999999996
  endloop
endfacet
facet normal -8.114500982340371e-32 3.2458003929361483e-31 -1.0
  outer loop
    vertex -1.750000000000001 -3.0310889132455334 29.999999999999996
    vertex -1.7499999999999984 3.031088913245535 29.999999999999996
    vertex -0.9058666578588253 -3.3807403920117376 29.999999999999996
  endloop
endfacet
facet normal -8.114500982340371e-32 3.2458003929361483e-31 -1.0
  outer loop
    vertex -0.9058666578588253 -3.3807403920117376 29.999999999999996
    vertex -1.7499999999999984 3.031088913245535 29.999999999999996
    vertex -0.905866657858821 3.380740392011739 29.999999999999996
  endloop
endfacet
facet normal -8.114500982340371e-32 3.2458003929361483e-31 -1.0
  outer loop
    vertex -0.9058666578588253 -3.3807403920117376 29.999999999999996
    vertex -0.905866657858821 3.380740392011739 29.999999999999996
    vertex 0.0 -3.499999999999999 29.999999999999996
  endloop
endfacet
facet normal -8.114500982340371e-32 3.2458003929361483e-31 -1.0
  outer loop
    vertex 0.0 -3.499999999999999 29.999999999999996
    vertex -0.905866657858821 3.380740392011739 29.999999999999996
    vertex 4.286263797015735e-16 3.499999999999999 29.999999999999996
  endloop
endfacet
facet normal -8.114500982340371e-32 3.2458003929361483e-31 -1.0
  outer loop
    vertex 0.0 -3.499999999999999 29.999999999999996
    vertex 4.286263797015735e-16 3.499999999999999 29.999999999999996
    vertex 0.9058666578588225 -3.380740392011738 29.999999999999996
  endloop
endfacet
facet normal -8.114500982340371e-32 3.2458003929361483e-31 -1.0
  outer loop
    vertex 0.9058666578588225 -3.380740392011738 29.999999999999996
    vertex 4.286263797015735e-16 3.499999999999999 29.999999999999996
    vertex 0.9058666578588234 3.380740392011738 29.999999999999996
  endloop
endfacet
facet normal -8.114500982340371e-32 3.2458003929361483e-31 -1.0
  outer loop
    vertex 0.9058666578588225 -3.380740392011738 29.999999999999996
    vertex 0.9058666578588234 3.380740392011738 29.999999999999996
    vertex 1.7499999999999993 -3.031088913245535 29.999999999999996
  endloop
endfacet
facet normal -8.114500982340371e-32 3.2458003929361483e-31 -1.0
  outer loop
    vertex 1.7499999999999993 -3.031088913245535 29.999999999999996
    vertex 0.9058666578588234 3.380740392011738 29.999999999999996
    vertex 1.7500000000000007 3.031088913245534 29.999999999999996
  endloop
endfacet
facet normal -8.114500982340371e-32 3.2458003929361483e-31 -1.0
  outer loop
    vertex 1.7499999999999993 -3.031088913245535 29.999999999999996
    vertex 1.7500000000000007 3.031088913245534 29.999999999999996
    vertex 2.4748737341529154 -2.474873734152916 29.999999999999996
  endloop
endfacet
facet normal -8.114500982340371e-32 3.2458003929361483e-31 -1.0
  outer loop
    vertex 2.4748737341529154 -2.474873734152916 29.999999999999996
    vertex 1.7500000000000007 3.031088913245534 29.999999999999996
    vertex 2.474873734152916 2.4748737341529154 29.999999999999996
  endloop
endfacet
facet normal -8.114500982340371e-32 3.2458003929361483e-31 -1.0
  outer loop
    vertex 2.4748737341529154 -2.474873734152916 29.999999999999996
    vertex 2.474873734152916 2.4748737341529154 29.999999999999996
    vertex 3.0310889132455343 -1.75 29.999999999999996
  endloop
endfacet
facet normal -8.114500982340371e-32 3.2458003929361483e-31 -1.0
  outer loop
    vertex 3.0310889132455343 -1.75 29.999999999999996
    vertex 2.474873734152916 2.4748737341529154 29.999999999999996
    vertex 3.031088913245535 1.749999999999999 29.999999999999996
  endloop
endfacet
facet normal -8.114500982340371e-32 3.2458003929361483e-31 -1.0
  outer loop
    vertex 3.0310889132455343 -1.75 29.999999999999996
    vertex 3.031088913245535 1.749999999999999 29.999999999999996
    vertex 3.380740392011738 -0.9058666578588231 29.999999999999996
  endloop
endfacet
facet normal -8.114500982340371e-32 3.2458003929361483e-31 -1.0
  outer loop
    vertex 3.380740392011738 -0.9058666578588231 29.999999999999996
    vertex 3.031088913245535 1.749999999999999 29.999999999999996
    vertex 3.380740392011738 0.9058666578588219 29.999999999999996
  endloop
endfacet
facet normal -8.114500982340371e-32 3.2458003929361483e-31 -1.0
  outer loop
    vertex 3.380740392011738 -0.9058666578588231 29.999999999999996
    vertex 3.380740392011738 0.9058666578588219 29.999999999999996
    vertex 3.499999999999999 -2.1431318985078676e-16 29.999999999999996
  endloop
endfacet
facet normal 0.7933533402912355 0.6087614290087202 -0.0
  outer loop
    vertex -5.629165124598854 -3.249999999999998 31.999999999999993
    vertex -4.596194077712562 -4.596194077712558 35.999999999999986
    vertex -4.596194077712562 -4.596194077712558 31.999999999999993
  endloop
endfacet
facet normal 0.7933533402912355 0.6087614290087202 -0.0
  outer loop
    vertex -4.596194077712562 -4.596194077712558 35.999999999999986
    vertex -5.629165124598854 -3.249999999999998 31.999999999999993
    vertex -5.629165124598854 -3.249999999999998 35.999999999999986
  endloop
endfacet
facet normal -0.3826834323650892 0.9238795325112871 -0.0
  outer loop
    vertex 1.6823237931663857 -6.278517870878944 35.999999999999986
    vertex 3.2499999999999996 -5.629165124598853 31.999999999999993
    vertex 1.6823237931663857 -6.278517870878944 31.999999999999993
  endloop
endfacet
facet normal -0.3826834323650892 0.9238795325112871 -0.0
  outer loop
    vertex 3.2499999999999996 -5.629165124598853 31.999999999999993
    vertex 1.6823237931663857 -6.278517870878944 35.999999999999986
    vertex 3.2499999999999996 -5.629165124598853 35.999999999999986
  endloop
endfacet
facet normal -0.13052619222005188 0.9914448613738105 -0.0
  outer loop
    vertex 2.4674706722294114e-15 -6.500000000000001 35.999999999999986
    vertex 1.6823237931663857 -6.278517870878944 31.999999999999993
    vertex 2.46747067222941e-15 -6.500000000000001 31.999999999999993
  endloop
endfacet
facet normal -0.13052619222005188 0.9914448613738105 -0.0
  outer loop
    vertex 1.6823237931663857 -6.278517870878944 31.999999999999993
    vertex 2.4674706722294114e-15 -6.500000000000001 35.999999999999986
    vertex 1.6823237931663857 -6.278517870878944 35.999999999999986
  endloop
endfacet
facet normal 0.1305261922200517 0.9914448613738105 -0.0
  outer loop
    vertex -1.6823237931663881 -6.278517870878944 35.999999999999986
    vertex 2.46747067222941e-15 -6.500000000000001 31.999999999999993
    vertex -1.6823237931663881 -6.278517870878944 31.999999999999993
  endloop
endfacet
facet normal 0.1305261922200517 0.9914448613738105 -0.0
  outer loop
    vertex 2.46747067222941e-15 -6.500000000000001 31.999999999999993
    vertex -1.6823237931663881 -6.278517870878944 35.999999999999986
    vertex 2.4674706722294114e-15 -6.500000000000001 35.999999999999986
  endloop
endfacet
facet normal 0.38268343236509 0.9238795325112867 -0.0
  outer loop
    vertex -3.250000000000004 -5.629165124598851 35.999999999999986
    vertex -1.6823237931663881 -6.278517870878944 31.999999999999993
    vertex -3.250000000000004 -5.629165124598851 31.999999999999993
  endloop
endfacet
facet normal 0.38268343236509 0.9238795325112867 -0.0
  outer loop
    vertex -1.6823237931663881 -6.278517870878944 31.999999999999993
    vertex -3.250000000000004 -5.629165124598851 35.999999999999986
    vertex -1.6823237931663881 -6.278517870878944 35.999999999999986
  endloop
endfacet
facet normal 0.6087614290087211 0.7933533402912348 -0.0
  outer loop
    vertex -4.596194077712562 -4.596194077712558 35.999999999999986
    vertex -3.250000000000004 -5.629165124598851 31.999999999999993
    vertex -4.596194077712562 -4.596194077712558 31.999999999999993
  endloop
endfacet
facet normal 0.6087614290087211 0.7933533402912348 -0.0
  outer loop
    vertex -3.250000000000004 -5.629165124598851 31.999999999999993
    vertex -4.596194077712562 -4.596194077712558 35.999999999999986
    vertex -3.250000000000004 -5.629165124598851 35.999999999999986
  endloop
endfacet
facet normal 1.8821801095132675e-31 -6.6660545545261585e-31 1.0
  outer loop
    vertex -6.278517870878946 -1.6823237931663821 31.999999999999993
    vertex -6.278517870878945 1.6823237931663881 31.999999999999993
    vertex -6.500000000000002 2.46747067222941e-15 31.999999999999993
  endloop
endfacet
facet normal 1.8821801095132675e-31 -6.6660545545261585e-31 1.0
  outer loop
    vertex -6.278517870878945 1.6823237931663881 31.999999999999993
    vertex -6.278517870878946 -1.6823237931663821 31.999999999999993
    vertex -5.629165124598854 -3.249999999999998 31.999999999999993
  endloop
endfacet
facet normal 1.8821801095132675e-31 -6.6660545545261585e-31 1.0
  outer loop
    vertex -6.278517870878945 1.6823237931663881 31.999999999999993
    vertex -5.629165124598854 -3.249999999999998 31.999999999999993
    vertex -5.629165124598852 3.2500000000000027 31.999999999999993
  endloop
endfacet
facet normal 1.8821801095132675e-31 -6.6660545545261585e-31 1.0
  outer loop
    vertex -5.629165124598852 3.2500000000000027 31.999999999999993
    vertex -5.629165124598854 -3.249999999999998 31.999999999999993
    vertex -4.596194077712562 -4.596194077712558 31.999999999999993
  endloop
endfacet
facet normal 1.8821801095132675e-31 -6.6660545545261585e-31 1.0
  outer loop
    vertex -5.629165124598852 3.2500000000000027 31.999999999999993
    vertex -4.596194077712562 -4.596194077712558 31.999999999999993
    vertex -4.596194077712559 4.5961940777125605 31.999999999999993
  endloop
endfacet
facet normal 1.8821801095132675e-31 -6.6660545545261585e-31 1.0
  outer loop
    vertex -4.596194077712559 4.5961940777125605 31.999999999999993
    vertex -4.596194077712562 -4.596194077712558 31.999999999999993
    vertex -3.250000000000004 -5.629165124598851 31.999999999999993
  endloop
endfacet
facet normal 1.8821801095132675e-31 -6.6660545545261585e-31 1.0
  outer loop
    vertex -4.596194077712559 4.5961940777125605 31.999999999999993
    vertex -3.250000000000004 -5.629165124598851 31.999999999999993
    vertex -3.2499999999999982 5.629165124598853 31.999999999999993
  endloop
endfacet
facet normal 1.8821801095132675e-31 -6.6660545545261585e-31 1.0
  outer loop
    vertex -3.2499999999999982 5.629165124598853 31.999999999999993
    vertex -3.250000000000004 -5.629165124598851 31.999999999999993
    vertex -1.6823237931663881 -6.278517870878944 31.999999999999993
  endloop
endfacet
facet normal 1.8821801095132675e-31 -6.6660545545261585e-31 1.0
  outer loop
    vertex -3.2499999999999982 5.629165124598853 31.999999999999993
    vertex -1.6823237931663881 -6.278517870878944 31.999999999999993
    vertex -1.6823237931663846 6.278517870878945 31.999999999999993
  endloop
endfacet
facet normal 1.8821801095132675e-31 -6.6660545545261585e-31 1.0
  outer loop
    vertex -1.6823237931663846 6.278517870878945 31.999999999999993
    vertex -1.6823237931663881 -6.278517870878944 31.999999999999993
    vertex 2.46747067222941e-15 -6.500000000000001 31.999999999999993
  endloop
endfacet
facet normal 1.8821801095132675e-31 -6.6660545545261585e-31 1.0
  outer loop
    vertex -1.6823237931663846 6.278517870878945 31.999999999999993
    vertex 2.46747067222941e-15 -6.500000000000001 31.999999999999993
    vertex 1.4099832412739487e-15 6.500000000000001 31.999999999999993
  endloop
endfacet
facet normal 1.8821801095132675e-31 -6.6660545545261585e-31 1.0
  outer loop
    vertex 1.4099832412739487e-15 6.500000000000001 31.999999999999993
    vertex 2.46747067222941e-15 -6.500000000000001 31.999999999999993
    vertex 1.6823237931663875 6.278517870878944 31.999999999999993
  endloop
endfacet
facet normal 1.8821801095132675e-31 -6.6660545545261585e-31 1.0
  outer loop
    vertex 1.6823237931663875 6.278517870878944 31.999999999999993
    vertex 2.46747067222941e-15 -6.500000000000001 31.999999999999993
    vertex 1.6823237931663857 -6.278517870878944 31.999999999999993
  endloop
endfacet
facet normal 1.8821801095132675e-31 -6.6660545545261585e-31 1.0
  outer loop
    vertex 1.6823237931663875 6.278517870878944 31.999999999999993
    vertex 1.6823237931663857 -6.278517870878944 31.999999999999993
    vertex 3.2499999999999996 -5.629165124598853 31.999999999999993
  endloop
endfacet
facet normal 1.8821801095132675e-31 -6.6660545545261585e-31 1.0
  outer loop
    vertex 1.6823237931663875 6.278517870878944 31.999999999999993
    vertex 3.2499999999999996 -5.629165124598853 31.999999999999993
    vertex 3.250000000000001 5.629165124598852 31.999999999999993
  endloop
endfacet
facet normal 1.8821801095132675e-31 -6.6660545545261585e-31 1.0
  outer loop
    vertex 3.250000000000001 5.629165124598852 31.999999999999993
    vertex 3.2499999999999996 -5.629165124598853 31.999999999999993
    vertex 4.596194077712562 -4.596194077712558 31.999999999999993
  endloop
endfacet
facet normal 1.8821801095132675e-31 -6.6660545545261585e-31 1.0
  outer loop
    vertex 3.250000000000001 5.629165124598852 31.999999999999993
    vertex 4.596194077712562 -4.596194077712558 31.999999999999993
    vertex 4.5961940777125605 4.596194077712559 31.999999999999993
  endloop
endfacet
facet normal 1.8821801095132675e-31 -6.6660545545261585e-31 1.0
  outer loop
    vertex 4.5961940777125605 4.596194077712559 31.999999999999993
    vertex 4.596194077712562 -4.596194077712558 31.999999999999993
    vertex 5.629165124598852 3.2500000000000004 31.999999999999993
  endloop
endfacet
facet normal 1.8821801095132675e-31 -6.6660545545261585e-31 1.0
  outer loop
    vertex 5.629165124598852 3.2500000000000004 31.999999999999993
    vertex 4.596194077712562 -4.596194077712558 31.999999999999993
    vertex 5.629165124598853 -3.250000000000001 31.999999999999993
  endloop
endfacet
facet normal 1.8821801095132675e-31 -6.6660545545261585e-31 1.0
  outer loop
    vertex 5.629165124598852 3.2500000000000004 31.999999999999993
    vertex 5.629165124598853 -3.250000000000001 31.999999999999993
    vertex 6.278517870878946 1.6823237931663846 31.999999999999993
  endloop
endfacet
facet normal 1.8821801095132675e-31 -6.6660545545261585e-31 1.0
  outer loop
    vertex 6.278517870878946 1.6823237931663846 31.999999999999993
    vertex 5.629165124598853 -3.250000000000001 31.999999999999993
    vertex 6.278517870878945 -1.6823237931663875 31.999999999999993
  endloop
endfacet
facet normal 1.8821801095132675e-31 -6.6660545545261585e-31 1.0
  outer loop
    vertex 6.278517870878946 1.6823237931663846 31.999999999999993
    vertex 6.278517870878945 -1.6823237931663875 31.999999999999993
    vertex 6.500000000000002 1.4099832412739487e-15 31.999999999999993
  endloop
endfacet
facet normal -0.6087614290087209 0.7933533402912349 -0.0
  outer loop
    vertex 3.2499999999999996 -5.629165124598853 35.999999999999986
    vertex 4.596194077712562 -4.596194077712558 31.999999999999993
    vertex 3.2499999999999996 -5.629165124598853 31.999999999999993
  endloop
endfacet
facet normal -0.6087614290087209 0.7933533402912349 -0.0
  outer loop
    vertex 4.596194077712562 -4.596194077712558 31.999999999999993
    vertex 3.2499999999999996 -5.629165124598853 35.999999999999986
    vertex 4.596194077712562 -4.596194077712558 35.999999999999986
  endloop
endfacet
facet normal -0.793353340291235 0.6087614290087211 0.0
  outer loop
    vertex 5.629165124598853 -3.250000000000001 35.999999999999986
    vertex 4.596194077712562 -4.596194077712558 31.999999999999993
    vertex 4.596194077712562 -4.596194077712558 35.999999999999986
  endloop
endfacet
facet normal -0.793353340291235 0.6087614290087211 0.0
  outer loop
    vertex 4.596194077712562 -4.596194077712558 31.999999999999993
    vertex 5.629165124598853 -3.250000000000001 35.999999999999986
    vertex 5.629165124598853 -3.250000000000001 31.999999999999993
  endloop
endfacet
facet normal -0.9238795325112868 0.3826834323650897 0.0
  outer loop
    vertex 6.278517870878945 -1.6823237931663875 35.999999999999986
    vertex 5.629165124598853 -3.250000000000001 31.999999999999993
    vertex 5.629165124598853 -3.250000000000001 35.999999999999986
  endloop
endfacet
facet normal -0.9238795325112868 0.3826834323650897 0.0
  outer loop
    vertex 5.629165124598853 -3.250000000000001 31.999999999999993
    vertex 6.278517870878945 -1.6823237931663875 35.999999999999986
    vertex 6.278517870878945 -1.6823237931663875 31.999999999999993
  endloop
endfacet
facet normal -0.9914448613738105 0.13052619222005185 0.0
  outer loop
    vertex 6.500000000000002 1.4099832412739485e-15 35.999999999999986
    vertex 6.278517870878945 -1.6823237931663875 31.999999999999993
    vertex 6.278517870878945 -1.6823237931663875 35.999999999999986
  endloop
endfacet
facet normal -0.9914448613738105 0.13052619222005185 0.0
  outer loop
    vertex 6.278517870878945 -1.6823237931663875 31.999999999999993
    vertex 6.500000000000002 1.4099832412739485e-15 35.999999999999986
    vertex 6.500000000000002 1.4099832412739487e-15 31.999999999999993
  endloop
endfacet
facet normal -0.9914448613738105 -0.13052619222005188 0.0
  outer loop
    vertex 6.278517870878946 1.6823237931663846 35.999999999999986
    vertex 6.500000000000002 1.4099832412739487e-15 31.999999999999993
    vertex 6.500000000000002 1.4099832412739485e-15 35.999999999999986
  endloop
endfacet
facet normal -0.9914448613738105 -0.13052619222005188 0.0
  outer loop
    vertex 6.500000000000002 1.4099832412739487e-15 31.999999999999993
    vertex 6.278517870878946 1.6823237931663846 35.999999999999986
    vertex 6.278517870878946 1.6823237931663846 31.999999999999993
  endloop
endfacet
facet normal -0.9238795325112867 -0.3826834323650904 0.0
  outer loop
    vertex 5.629165124598852 3.2500000000000004 35.999999999999986
    vertex 6.278517870878946 1.6823237931663846 31.999999999999993
    vertex 6.278517870878946 1.6823237931663846 35.999999999999986
  endloop
endfacet
facet normal -0.9238795325112867 -0.3826834323650904 0.0
  outer loop
    vertex 6.278517870878946 1.6823237931663846 31.999999999999993
    vertex 5.629165124598852 3.2500000000000004 35.999999999999986
    vertex 5.629165124598852 3.2500000000000004 31.999999999999993
  endloop
endfacet
facet normal -0.7933533402912356 -0.6087614290087203 0.0
  outer loop
    vertex 4.5961940777125605 4.596194077712559 35.999999999999986
    vertex 5.629165124598852 3.2500000000000004 31.999999999999993
    vertex 5.629165124598852 3.2500000000000004 35.999999999999986
  endloop
endfacet
facet normal -0.7933533402912356 -0.6087614290087203 0.0
  outer loop
    vertex 5.629165124598852 3.2500000000000004 31.999999999999993
    vertex 4.5961940777125605 4.596194077712559 35.999999999999986
    vertex 4.5961940777125605 4.596194077712559 31.999999999999993
  endloop
endfacet
facet normal -0.6087614290087207 -0.7933533402912352 0.0
  outer loop
    vertex 4.5961940777125605 4.596194077712559 35.999999999999986
    vertex 3.250000000000001 5.629165124598852 31.999999999999993
    vertex 4.5961940777125605 4.596194077712559 31.999999999999993
  endloop
endfacet
facet normal -0.6087614290087207 -0.7933533402912352 0.0
  outer loop
    vertex 3.250000000000001 5.629165124598852 31.999999999999993
    vertex 4.5961940777125605 4.596194077712559 35.999999999999986
    vertex 3.250000000000001 5.629165124598852 35.999999999999986
  endloop
endfacet
facet normal -0.3826834323650897 -0.9238795325112868 0.0
  outer loop
    vertex 3.250000000000001 5.629165124598852 35.999999999999986
    vertex 1.6823237931663875 6.278517870878944 31.999999999999993
    vertex 3.250000000000001 5.629165124598852 31.999999999999993
  endloop
endfacet
facet normal -0.3826834323650897 -0.9238795325112868 0.0
  outer loop
    vertex 1.6823237931663875 6.278517870878944 31.999999999999993
    vertex 3.250000000000001 5.629165124598852 35.999999999999986
    vertex 1.6823237931663875 6.278517870878944 35.999999999999986
  endloop
endfacet
facet normal -0.1305261922200521 -0.9914448613738105 0.0
  outer loop
    vertex 1.6823237931663875 6.278517870878944 35.999999999999986
    vertex 1.4099832412739487e-15 6.500000000000001 31.999999999999993
    vertex 1.6823237931663875 6.278517870878944 31.999999999999993
  endloop
endfacet
facet normal -0.1305261922200521 -0.9914448613738105 0.0
  outer loop
    vertex 1.4099832412739487e-15 6.500000000000001 31.999999999999993
    vertex 1.6823237931663875 6.278517870878944 35.999999999999986
    vertex 1.40998324127395e-15 6.500000000000001 35.999999999999986
  endloop
endfacet
facet normal 0.13052619222005127 -0.9914448613738105 0.0
  outer loop
    vertex 1.40998324127395e-15 6.500000000000001 35.999999999999986
    vertex -1.6823237931663846 6.278517870878945 31.999999999999993
    vertex 1.4099832412739487e-15 6.500000000000001 31.999999999999993
  endloop
endfacet
facet normal 0.13052619222005127 -0.9914448613738105 0.0
  outer loop
    vertex -1.6823237931663846 6.278517870878945 31.999999999999993
    vertex 1.40998324127395e-15 6.500000000000001 35.999999999999986
    vertex -1.6823237931663846 6.278517870878945 35.999999999999986
  endloop
endfacet
facet normal 0.38268343236508967 -0.9238795325112868 0.0
  outer loop
    vertex -1.6823237931663846 6.278517870878945 35.999999999999986
    vertex -3.2499999999999982 5.629165124598853 31.999999999999993
    vertex -1.6823237931663846 6.278517870878945 31.999999999999993
  endloop
endfacet
facet normal 0.38268343236508967 -0.9238795325112868 0.0
  outer loop
    vertex -3.2499999999999982 5.629165124598853 31.999999999999993
    vertex -1.6823237931663846 6.278517870878945 35.999999999999986
    vertex -3.2499999999999982 5.629165124598853 35.999999999999986
  endloop
endfacet
facet normal 0.6087614290087202 -0.7933533402912355 0.0
  outer loop
    vertex -3.2499999999999982 5.629165124598853 35.999999999999986
    vertex -4.596194077712559 4.5961940777125605 31.999999999999993
    vertex -3.2499999999999982 5.629165124598853 31.999999999999993
  endloop
endfacet
facet normal 0.6087614290087202 -0.7933533402912355 0.0
  outer loop
    vertex -4.596194077712559 4.5961940777125605 31.999999999999993
    vertex -3.2499999999999982 5.629165124598853 35.999999999999986
    vertex -4.596194077712559 4.5961940777125605 35.999999999999986
  endloop
endfacet
facet normal 0.7933533402912348 -0.6087614290087211 -0.0
  outer loop
    vertex -4.596194077712559 4.5961940777125605 31.999999999999993
    vertex -5.629165124598852 3.2500000000000027 35.999999999999986
    vertex -5.629165124598852 3.2500000000000027 31.999999999999993
  endloop
endfacet
facet normal 0.7933533402912348 -0.6087614290087211 -0.0
  outer loop
    vertex -5.629165124598852 3.2500000000000027 35.999999999999986
    vertex -4.596194077712559 4.5961940777125605 31.999999999999993
    vertex -4.596194077712559 4.5961940777125605 35.999999999999986
  endloop
endfacet
facet normal 0.9238795325112867 -0.38268343236509034 -0.0
  outer loop
    vertex -5.629165124598852 3.2500000000000027 31.999999999999993
    vertex -6.278517870878945 1.6823237931663881 35.999999999999986
    vertex -6.278517870878945 1.6823237931663881 31.999999999999993
  endloop
endfacet
facet normal 0.9238795325112867 -0.38268343236509034 -0.0
  outer loop
    vertex -6.278517870878945 1.6823237931663881 35.999999999999986
    vertex -5.629165124598852 3.2500000000000027 31.999999999999993
    vertex -5.629165124598852 3.2500000000000027 35.999999999999986
  endloop
endfacet
facet normal 0.9914448613738105 -0.1305261922200521 -0.0
  outer loop
    vertex -6.278517870878945 1.6823237931663881 31.999999999999993
    vertex -6.500000000000002 2.46747067222941e-15 35.999999999999986
    vertex -6.500000000000002 2.46747067222941e-15 31.999999999999993
  endloop
endfacet
facet normal 0.9914448613738105 -0.1305261922200521 -0.0
  outer loop
    vertex -6.500000000000002 2.46747067222941e-15 35.999999999999986
    vertex -6.278517870878945 1.6823237931663881 31.999999999999993
    vertex -6.278517870878945 1.6823237931663881 35.999999999999986
  endloop
endfacet
facet normal 0.9914448613738105 0.13052619222005177 -0.0
  outer loop
    vertex -6.500000000000002 2.46747067222941e-15 31.999999999999993
    vertex -6.278517870878946 -1.6823237931663821 35.999999999999986
    vertex -6.278517870878946 -1.6823237931663821 31.999999999999993
  endloop
endfacet
facet normal 0.9914448613738105 0.13052619222005177 -0.0
  outer loop
    vertex -6.278517870878946 -1.6823237931663821 35.999999999999986
    vertex -6.500000000000002 2.46747067222941e-15 31.999999999999993
    vertex -6.500000000000002 2.46747067222941e-15 35.999999999999986
  endloop
endfacet
facet normal 0.9238795325112871 0.3826834323650894 -0.0
  outer loop
    vertex -6.278517870878946 -1.6823237931663821 31.999999999999993
    vertex -5.629165124598854 -3.249999999999998 35.999999999999986
    vertex -5.629165124598854 -3.249999999999998 31.999999999999993
  endloop
endfacet
facet normal 0.9238795325112871 0.3826834323650894 -0.0
  outer loop
    vertex -5.629165124598854 -3.249999999999998 35.999999999999986
    vertex -6.278517870878946 -1.6823237931663821 31.999999999999993
    vertex -6.278517870878946 -1.6823237931663821 35.999999999999986
  endloop
endfacet
facet normal 0.0 0.0 -1.0
  outer loop
    vertex -2.9999999999999982 5.196152422706632 0.0
    vertex -3.499999999999999 6.429395695523602e-16 0.0
    vertex -4.242640687119282 4.242640687119287 0.0
  endloop
endfacet
facet normal 0.0 0.0 -1.0
  outer loop
    vertex -3.499999999999999 6.429395695523602e-16 0.0
    vertex -2.9999999999999982 5.196152422706632 0.0
    vertex -3.3807403920117376 0.9058666578588251 0.0
  endloop
endfacet
facet normal 0.0 0.0 -1.0
  outer loop
    vertex -3.3807403920117376 0.9058666578588251 0.0
    vertex -2.9999999999999982 5.196152422706632 0.0
    vertex -3.0310889132455334 1.750000000000001 0.0
  endloop
endfacet
facet normal 0.0 0.0 -1.0
  outer loop
    vertex -3.0310889132455334 1.750000000000001 0.0
    vertex -2.9999999999999982 5.196152422706632 0.0
    vertex -2.4748737341529146 2.4748737341529172 0.0
  endloop
endfacet
facet normal 0.0 0.0 -1.0
  outer loop
    vertex -2.4748737341529146 2.4748737341529172 0.0
    vertex -2.9999999999999982 5.196152422706632 0.0
    vertex -1.552914270615122 5.79555495773441 0.0
  endloop
endfacet
facet normal 0.0 0.0 -1.0
  outer loop
    vertex -2.4748737341529146 2.4748737341529172 0.0
    vertex -1.552914270615122 5.79555495773441 0.0
    vertex -1.7499999999999984 3.031088913245535 0.0
  endloop
endfacet
facet normal 0.0 0.0 -1.0
  outer loop
    vertex -1.7499999999999984 3.031088913245535 0.0
    vertex -1.552914270615122 5.79555495773441 0.0
    vertex -0.905866657858821 3.380740392011739 0.0
  endloop
endfacet
facet normal 0.0 0.0 -1.0
  outer loop
    vertex -0.905866657858821 3.380740392011739 0.0
    vertex -1.552914270615122 5.79555495773441 0.0
    vertex 7.347880794884119e-16 6.0 0.0
  endloop
endfacet
facet normal 0.0 0.0 -1.0
  outer loop
    vertex -0.905866657858821 3.380740392011739 0.0
    vertex 7.347880794884119e-16 6.0 0.0
    vertex 4.286263797015735e-16 3.499999999999999 0.0
  endloop
endfacet
facet normal 0.0 0.0 -1.0
  outer loop
    vertex 4.286263797015735e-16 3.499999999999999 0.0
    vertex 7.347880794884119e-16 6.0 0.0
    vertex 0.9058666578588234 3.380740392011738 0.0
  endloop
endfacet
facet normal 0.0 0.0 -1.0
  outer loop
    vertex 0.9058666578588234 3.380740392011738 0.0
    vertex 7.347880794884119e-16 6.0 0.0
    vertex 1.552914270615126 5.795554957734409 0.0
  endloop
endfacet
facet normal 0.0 0.0 -1.0
  outer loop
    vertex 0.9058666578588234 3.380740392011738 0.0
    vertex 1.552914270615126 5.795554957734409 0.0
    vertex 1.7500000000000007 3.031088913245534 0.0
  endloop
endfacet
facet normal 0.0 0.0 -1.0
  outer loop
    vertex 1.7500000000000007 3.031088913245534 0.0
    vertex 1.552914270615126 5.795554957734409 0.0
    vertex 3.0000000000000018 5.196152422706631 0.0
  endloop
endfacet
facet normal 0.0 0.0 -1.0
  outer loop
    vertex 1.7500000000000007 3.031088913245534 0.0
    vertex 3.0000000000000018 5.196152422706631 0.0
    vertex 2.474873734152916 2.4748737341529154 0.0
  endloop
endfacet
facet normal 0.0 0.0 -1.0
  outer loop
    vertex 2.474873734152916 2.4748737341529154 0.0
    vertex 3.0000000000000018 5.196152422706631 0.0
    vertex 3.031088913245535 1.749999999999999 0.0
  endloop
endfacet
facet normal 0.0 0.0 -1.0
  outer loop
    vertex 3.031088913245535 1.749999999999999 0.0
    vertex 3.0000000000000018 5.196152422706631 0.0
    vertex 4.242640687119285 4.242640687119285 0.0
  endloop
endfacet
facet normal 0.0 0.0 -1.0
  outer loop
    vertex 3.031088913245535 1.749999999999999 0.0
    vertex 4.242640687119285 4.242640687119285 0.0
    vertex 3.380740392011738 0.9058666578588219 0.0
  endloop
endfacet
facet normal 0.0 0.0 -1.0
  outer loop
    vertex 3.380740392011738 0.9058666578588219 0.0
    vertex 4.242640687119285 4.242640687119285 0.0
    vertex 3.499999999999999 -2.1431318985078676e-16 0.0
  endloop
endfacet
facet normal 0.0 0.0 -1.0
  outer loop
    vertex 3.499999999999999 -2.1431318985078676e-16 0.0
    vertex 4.242640687119285 4.242640687119285 0.0
    vertex 4.242640687119285 -4.242640687119285 0.0
  endloop
endfacet
facet normal 0.0 0.0 -1.0
  outer loop
    vertex 4.242640687119285 -4.242640687119285 0.0
    vertex 4.242640687119285 4.242640687119285 0.0
    vertex 5.196152422706631 -3.0000000000000004 0.0
  endloop
endfacet
facet normal 0.0 0.0 -1.0
  outer loop
    vertex 5.196152422706631 -3.0000000000000004 0.0
    vertex 4.242640687119285 4.242640687119285 0.0
    vertex 5.196152422706632 2.9999999999999982 0.0
  endloop
endfacet
facet normal 0.0 0.0 -1.0
  outer loop
    vertex 5.196152422706631 -3.0000000000000004 0.0
    vertex 5.196152422706632 2.9999999999999982 0.0
    vertex 5.795554957734409 -1.5529142706151258 0.0
  endloop
endfacet
facet normal 0.0 0.0 -1.0
  outer loop
    vertex 5.795554957734409 -1.5529142706151258 0.0
    vertex 5.196152422706632 2.9999999999999982 0.0
    vertex 5.79555495773441 1.5529142706151238 0.0
  endloop
endfacet
facet normal 0.0 0.0 -1.0
  outer loop
    vertex 5.795554957734409 -1.5529142706151258 0.0
    vertex 5.79555495773441 1.5529142706151238 0.0
    vertex 6.0 -3.6739403974420594e-16 0.0
  endloop
endfacet
facet normal 0.0 0.0 -1.0
  outer loop
    vertex -5.795554957734408 1.552914270615129 0.0
    vertex -5.79555495773441 -1.5529142706151216 0.0
    vertex -6.0 1.1021821192326177e-15 0.0
  endloop
endfacet
facet normal 0.0 0.0 -1.0
  outer loop
    vertex -5.79555495773441 -1.5529142706151216 0.0
    vertex -5.795554957734408 1.552914270615129 0.0
    vertex -5.196152422706634 -2.9999999999999956 0.0
  endloop
endfacet
facet normal 0.0 0.0 -1.0
  outer loop
    vertex -5.196152422706634 -2.9999999999999956 0.0
    vertex -5.795554957734408 1.552914270615129 0.0
    vertex -5.19615242270663 3.0000000000000027 0.0
  endloop
endfacet
facet normal 0.0 0.0 -1.0
  outer loop
    vertex -5.196152422706634 -2.9999999999999956 0.0
    vertex -5.19615242270663 3.0000000000000027 0.0
    vertex -4.242640687119286 -4.242640687119284 0.0
  endloop
endfacet
facet normal 0.0 0.0 -1.0
  outer loop
    vertex -4.242640687119286 -4.242640687119284 0.0
    vertex -5.19615242270663 3.0000000000000027 0.0
    vertex -4.242640687119282 4.242640687119287 0.0
  endloop
endfacet
facet normal 0.0 0.0 -1.0
  outer loop
    vertex -4.242640687119286 -4.242640687119284 0.0
    vertex -4.242640687119282 4.242640687119287 0.0
    vertex -3.0000000000000027 -5.19615242270663 0.0
  endloop
endfacet
facet normal 0.0 0.0 -1.0
  outer loop
    vertex -3.0000000000000027 -5.19615242270663 0.0
    vertex -4.242640687119282 4.242640687119287 0.0
    vertex -3.499999999999999 6.429395695523602e-16 0.0
  endloop
endfacet
facet normal 0.0 0.0 -1.0
  outer loop
    vertex -3.0000000000000027 -5.19615242270663 0.0
    vertex -3.499999999999999 6.429395695523602e-16 0.0
    vertex -3.380740392011739 -0.9058666578588209 0.0
  endloop
endfacet
facet normal 0.0 0.0 -1.0
  outer loop
    vertex -3.0000000000000027 -5.19615242270663 0.0
    vertex -3.380740392011739 -0.9058666578588209 0.0
    vertex -3.031088913245536 -1.7499999999999971 0.0
  endloop
endfacet
facet normal 0.0 0.0 -1.0
  outer loop
    vertex -3.0000000000000027 -5.19615242270663 0.0
    vertex -3.031088913245536 -1.7499999999999971 0.0
    vertex -2.4748737341529163 -2.474873734152915 0.0
  endloop
endfacet
facet normal 0.0 0.0 -1.0
  outer loop
    vertex -3.0000000000000027 -5.19615242270663 0.0
    vertex -2.4748737341529163 -2.474873734152915 0.0
    vertex -1.5529142706151293 -5.795554957734408 0.0
  endloop
endfacet
facet normal 0.0 0.0 -1.0
  outer loop
    vertex -1.5529142706151293 -5.795554957734408 0.0
    vertex -2.4748737341529163 -2.474873734152915 0.0
    vertex -1.750000000000001 -3.0310889132455334 0.0
  endloop
endfacet
facet normal 0.0 0.0 -1.0
  outer loop
    vertex -1.5529142706151293 -5.795554957734408 0.0
    vertex -1.750000000000001 -3.0310889132455334 0.0
    vertex -0.9058666578588253 -3.3807403920117376 0.0
  endloop
endfacet
facet normal 0.0 0.0 -1.0
  outer loop
    vertex -1.5529142706151293 -5.795554957734408 0.0
    vertex -0.9058666578588253 -3.3807403920117376 0.0
    vertex 0.0 -6.0 0.0
  endloop
endfacet
facet normal 0.0 0.0 -1.0
  outer loop
    vertex 0.0 -6.0 0.0
    vertex -0.9058666578588253 -3.3807403920117376 0.0
    vertex 0.0 -3.499999999999999 0.0
  endloop
endfacet
facet normal 0.0 0.0 -1.0
  outer loop
    vertex 0.0 -6.0 0.0
    vertex 0.0 -3.499999999999999 0.0
    vertex 0.9058666578588225 -3.380740392011738 0.0
  endloop
endfacet
facet normal 0.0 0.0 -1.0
  outer loop
    vertex 0.0 -6.0 0.0
    vertex 0.9058666578588225 -3.380740392011738 0.0
    vertex 1.5529142706151242 -5.79555495773441 0.0
  endloop
endfacet
facet normal 0.0 0.0 -1.0
  outer loop
    vertex 1.5529142706151242 -5.79555495773441 0.0
    vertex 0.9058666578588225 -3.380740392011738 0.0
    vertex 1.7499999999999993 -3.031088913245535 0.0
  endloop
endfacet
facet normal 0.0 0.0 -1.0
  outer loop
    vertex 1.5529142706151242 -5.79555495773441 0.0
    vertex 1.7499999999999993 -3.031088913245535 0.0
    vertex 2.9999999999999996 -5.196152422706632 0.0
  endloop
endfacet
facet normal 0.0 0.0 -1.0
  outer loop
    vertex 2.9999999999999996 -5.196152422706632 0.0
    vertex 1.7499999999999993 -3.031088913245535 0.0
    vertex 2.4748737341529154 -2.474873734152916 0.0
  endloop
endfacet
facet normal 0.0 0.0 -1.0
  outer loop
    vertex 2.9999999999999996 -5.196152422706632 0.0
    vertex 2.4748737341529154 -2.474873734152916 0.0
    vertex 3.0310889132455343 -1.75 0.0
  endloop
endfacet
facet normal 0.0 0.0 -1.0
  outer loop
    vertex 2.9999999999999996 -5.196152422706632 0.0
    vertex 3.0310889132455343 -1.75 0.0
    vertex 4.242640687119285 -4.242640687119285 0.0
  endloop
endfacet
facet normal 0.0 0.0 -1.0
  outer loop
    vertex 4.242640687119285 -4.242640687119285 0.0
    vertex 3.0310889132455343 -1.75 0.0
    vertex 3.380740392011738 -0.9058666578588231 0.0
  endloop
endfacet
facet normal 0.0 0.0 -1.0
  outer loop
    vertex 4.242640687119285 -4.242640687119285 0.0
    vertex 3.380740392011738 -0.9058666578588231 0.0
    vertex 3.499999999999999 -2.1431318985078676e-16 0.0
  endloop
endfacet
facet normal -0.1298893711486547 -0.9866077251016759 -0.09866077251016762
  outer loop
    vertex -4.229949723821845e-15 -8.999999999999998 29.999999999999996
    vertex -1.5529142706151293 -5.795554957734408 0.0
    vertex 0.0 -6.0 0.0
  endloop
endfacet
facet normal -0.1298893711486547 -0.9866077251016759 -0.09866077251016762
  outer loop
    vertex -1.5529142706151293 -5.795554957734408 0.0
    vertex -4.229949723821845e-15 -8.999999999999998 29.999999999999996
    vertex -2.329371405922691 -8.693332436601613 29.999999999999996
  endloop
endfacet
facet normal 0.1298893711486538 -0.9866077251016759 -0.0986607725101676
  outer loop
    vertex 2.329371405922682 -8.693332436601617 29.999999999999996
    vertex 0.0 -6.0 0.0
    vertex 1.5529142706151242 -5.79555495773441 0.0
  endloop
endfacet
facet normal 0.1298893711486538 -0.9866077251016759 -0.0986607725101676
  outer loop
    vertex 0.0 -6.0 0.0
    vertex 2.329371405922682 -8.693332436601617 29.999999999999996
    vertex -4.229949723821845e-15 -8.999999999999998 29.999999999999996
  endloop
endfacet
facet normal 0.38081636745451747 -0.9193720390823528 -0.09866077251016762
  outer loop
    vertex 4.499999999999997 -7.79422863405995 29.999999999999996
    vertex 1.5529142706151242 -5.79555495773441 0.0
    vertex 2.9999999999999996 -5.196152422706632 0.0
  endloop
endfacet
facet normal 0.38081636745451747 -0.9193720390823528 -0.09866077251016762
  outer loop
    vertex 1.5529142706151242 -5.79555495773441 0.0
    vertex 4.499999999999997 -7.79422863405995 29.999999999999996
    vertex 2.329371405922682 -8.693332436601617 29.999999999999996
  endloop
endfacet
facet normal 0.6057913576471575 -0.7894826679336987 -0.09866077251016767
  outer loop
    vertex 6.363961030678927 -6.363961030678932 29.999999999999996
    vertex 2.9999999999999996 -5.196152422706632 0.0
    vertex 4.242640687119285 -4.242640687119285 0.0
  endloop
endfacet
facet normal 0.6057913576471575 -0.7894826679336987 -0.09866077251016767
  outer loop
    vertex 2.9999999999999996 -5.196152422706632 0.0
    vertex 6.363961030678927 -6.363961030678932 29.999999999999996
    vertex 4.499999999999997 -7.79422863405995 29.999999999999996
  endloop
endfacet
facet normal 0.7894826679336979 -0.6057913576471586 -0.0986607725101677
  outer loop
    vertex 4.242640687119285 -4.242640687119285 0.0
    vertex 7.794228634059945 -4.500000000000006 29.999999999999996
    vertex 6.363961030678927 -6.363961030678932 29.999999999999996
  endloop
endfacet
facet normal 0.7894826679336979 -0.6057913576471586 -0.0986607725101677
  outer loop
    vertex 7.794228634059945 -4.500000000000006 29.999999999999996
    vertex 4.242640687119285 -4.242640687119285 0.0
    vertex 5.196152422706631 -3.0000000000000004 0.0
  endloop
endfacet
facet normal 0.9193720390823523 -0.3808163674545185 -0.09866077251016768
  outer loop
    vertex 5.196152422706631 -3.0000000000000004 0.0
    vertex 8.693332436601615 -2.3293714059226924 29.999999999999996
    vertex 7.794228634059945 -4.500000000000006 29.999999999999996
  endloop
endfacet
facet normal 0.9193720390823523 -0.3808163674545185 -0.09866077251016768
  outer loop
    vertex 8.693332436601615 -2.3293714059226924 29.999999999999996
    vertex 5.196152422706631 -3.0000000000000004 0.0
    vertex 5.795554957734409 -1.5529142706151258 0.0
  endloop
endfacet
facet normal 0.9866077251016759 -0.1298893711486548 -0.09866077251016768
  outer loop
    vertex 5.795554957734409 -1.5529142706151258 0.0
    vertex 9.0 -5.992428775414282e-15 29.999999999999996
    vertex 8.693332436601615 -2.3293714059226924 29.999999999999996
  endloop
endfacet
facet normal 0.9866077251016759 -0.1298893711486548 -0.09866077251016768
  outer loop
    vertex 9.0 -5.992428775414282e-15 29.999999999999996
    vertex 5.795554957734409 -1.5529142706151258 0.0
    vertex 6.0 -3.6739403974420594e-16 0.0
  endloop
endfacet
facet normal 0.9866077251016759 0.12988937114865387 -0.09866077251016767
  outer loop
    vertex 6.0 -3.6739403974420594e-16 0.0
    vertex 8.693332436601617 2.32937140592268 29.999999999999996
    vertex 9.0 -5.992428775414282e-15 29.999999999999996
  endloop
endfacet
facet normal 0.9866077251016759 0.12988937114865387 -0.09866077251016767
  outer loop
    vertex 8.693332436601617 2.32937140592268 29.999999999999996
    vertex 6.0 -3.6739403974420594e-16 0.0
    vertex 5.79555495773441 1.5529142706151238 0.0
  endloop
endfacet
facet normal 0.9193720390823529 0.3808163674545172 -0.09866077251016767
  outer loop
    vertex 5.196152422706632 2.9999999999999982 0.0
    vertex 8.693332436601617 2.32937140592268 29.999999999999996
    vertex 5.79555495773441 1.5529142706151238 0.0
  endloop
endfacet
facet normal 0.9193720390823529 0.3808163674545172 -0.09866077251016767
  outer loop
    vertex 8.693332436601617 2.32937140592268 29.999999999999996
    vertex 5.196152422706632 2.9999999999999982 0.0
    vertex 7.794228634059951 4.499999999999996 29.999999999999996
  endloop
endfacet
facet normal 0.7894826679336984 0.6057913576471577 -0.09866077251016761
  outer loop
    vertex 4.242640687119285 4.242640687119285 0.0
    vertex 7.794228634059951 4.499999999999996 29.999999999999996
    vertex 5.196152422706632 2.9999999999999982 0.0
  endloop
endfacet
facet normal 0.7894826679336984 0.6057913576471577 -0.09866077251016761
  outer loop
    vertex 7.794228634059951 4.499999999999996 29.999999999999996
    vertex 4.242640687119285 4.242640687119285 0.0
    vertex 6.363961030678934 6.363961030678922 29.999999999999996
  endloop
endfacet
facet normal 0.6057913576471591 0.7894826679336974 -0.09866077251016767
  outer loop
    vertex 4.500000000000007 7.7942286340599445 29.999999999999996
    vertex 4.242640687119285 4.242640687119285 0.0
    vertex 3.0000000000000018 5.196152422706631 0.0
  endloop
endfacet
facet normal 0.6057913576471591 0.7894826679336974 -0.09866077251016767
  outer loop
    vertex 4.242640687119285 4.242640687119285 0.0
    vertex 4.500000000000007 7.7942286340599445 29.999999999999996
    vertex 6.363961030678934 6.363961030678922 29.999999999999996
  endloop
endfacet
facet normal 0.3808163674545182 0.9193720390823523 -0.09866077251016764
  outer loop
    vertex 2.3293714059226924 8.693332436601613 29.999999999999996
    vertex 3.0000000000000018 5.196152422706631 0.0
    vertex 1.552914270615126 5.795554957734409 0.0
  endloop
endfacet
facet normal 0.3808163674545182 0.9193720390823523 -0.09866077251016764
  outer loop
    vertex 3.0000000000000018 5.196152422706631 0.0
    vertex 2.3293714059226924 8.693332436601613 29.999999999999996
    vertex 4.500000000000007 7.7942286340599445 29.999999999999996
  endloop
endfacet
facet normal 0.12988937114865515 0.9866077251016758 -0.09866077251016761
  outer loop
    vertex 8.107403637325205e-15 9.0 29.999999999999996
    vertex 1.552914270615126 5.795554957734409 0.0
    vertex 7.347880794884119e-16 6.0 0.0
  endloop
endfacet
facet normal 0.12988937114865515 0.9866077251016758 -0.09866077251016761
  outer loop
    vertex 1.552914270615126 5.795554957734409 0.0
    vertex 8.107403637325205e-15 9.0 29.999999999999996
    vertex 2.3293714059226924 8.693332436601613 29.999999999999996
  endloop
endfacet
facet normal -0.12988937114865354 0.9866077251016762 -0.09866077251016764
  outer loop
    vertex -2.3293714059226804 8.693332436601617 29.999999999999996
    vertex 7.347880794884119e-16 6.0 0.0
    vertex -1.552914270615122 5.79555495773441 0.0
  endloop
endfacet
facet normal -0.12988937114865354 0.9866077251016762 -0.09866077251016764
  outer loop
    vertex 7.347880794884119e-16 6.0 0.0
    vertex -2.3293714059226804 8.693332436601617 29.999999999999996
    vertex 8.107403637325205e-15 9.0 29.999999999999996
  endloop
endfacet
facet normal -0.3808163674545175 0.9193720390823528 -0.09866077251016767
  outer loop
    vertex -4.499999999999992 7.7942286340599525 29.999999999999996
    vertex -1.552914270615122 5.79555495773441 0.0
    vertex -2.9999999999999982 5.196152422706632 0.0
  endloop
endfacet
facet normal -0.3808163674545175 0.9193720390823528 -0.09866077251016767
  outer loop
    vertex -1.552914270615122 5.79555495773441 0.0
    vertex -4.499999999999992 7.7942286340599525 29.999999999999996
    vertex -2.3293714059226804 8.693332436601617 29.999999999999996
  endloop
endfacet
facet normal -0.6057913576471574 0.7894826679336988 -0.09866077251016765
  outer loop
    vertex -6.363961030678922 6.363961030678935 29.999999999999996
    vertex -2.9999999999999982 5.196152422706632 0.0
    vertex -4.242640687119282 4.242640687119287 0.0
  endloop
endfacet
facet normal -0.6057913576471574 0.7894826679336988 -0.09866077251016765
  outer loop
    vertex -2.9999999999999982 5.196152422706632 0.0
    vertex -6.363961030678922 6.363961030678935 29.999999999999996
    vertex -4.499999999999992 7.7942286340599525 29.999999999999996
  endloop
endfacet
facet normal -0.7894826679336974 0.6057913576471591 -0.09866077251016765
  outer loop
    vertex -7.794228634059943 4.50000000000001 29.999999999999996
    vertex -4.242640687119282 4.242640687119287 0.0
    vertex -5.19615242270663 3.0000000000000027 0.0
  endloop
endfacet
facet normal -0.7894826679336974 0.6057913576471591 -0.09866077251016765
  outer loop
    vertex -4.242640687119282 4.242640687119287 0.0
    vertex -7.794228634059943 4.50000000000001 29.999999999999996
    vertex -6.363961030678922 6.363961030678935 29.999999999999996
  endloop
endfacet
facet normal -0.919372039082352 0.3808163674545188 -0.09866077251016764
  outer loop
    vertex -8.693332436601615 2.3293714059226938 29.999999999999996
    vertex -5.19615242270663 3.0000000000000027 0.0
    vertex -5.795554957734408 1.552914270615129 0.0
  endloop
endfacet
facet normal -0.919372039082352 0.3808163674545188 -0.09866077251016764
  outer loop
    vertex -5.19615242270663 3.0000000000000027 0.0
    vertex -8.693332436601615 2.3293714059226938 29.999999999999996
    vertex -7.794228634059943 4.50000000000001 29.999999999999996
  endloop
endfacet
facet normal -0.9866077251016758 0.12988937114865542 -0.09866077251016772
  outer loop
    vertex -9.000000000000002 9.517386878599154e-15 29.999999999999996
    vertex -5.795554957734408 1.552914270615129 0.0
    vertex -6.0 1.1021821192326177e-15 0.0
  endloop
endfacet
facet normal -0.9866077251016758 0.12988937114865542 -0.09866077251016772
  outer loop
    vertex -5.795554957734408 1.552914270615129 0.0
    vertex -9.000000000000002 9.517386878599154e-15 29.999999999999996
    vertex -8.693332436601615 2.3293714059226938 29.999999999999996
  endloop
endfacet
facet normal -0.9866077251016759 -0.1298893711486538 -0.09866077251016765
  outer loop
    vertex -9.000000000000002 9.517386878599154e-15 29.999999999999996
    vertex -5.79555495773441 -1.5529142706151216 0.0
    vertex -8.693332436601619 -2.329371405922675 29.999999999999996
  endloop
endfacet
facet normal -0.9866077251016759 -0.1298893711486538 -0.09866077251016765
  outer loop
    vertex -5.79555495773441 -1.5529142706151216 0.0
    vertex -9.000000000000002 9.517386878599154e-15 29.999999999999996
    vertex -6.0 1.1021821192326177e-15 0.0
  endloop
endfacet
facet normal -0.9193720390823529 -0.38081636745451714 -0.09866077251016767
  outer loop
    vertex -8.693332436601619 -2.329371405922675 29.999999999999996
    vertex -5.196152422706634 -2.9999999999999956 0.0
    vertex -7.7942286340599525 -4.499999999999993 29.999999999999996
  endloop
endfacet
facet normal -0.9193720390823529 -0.38081636745451714 -0.09866077251016767
  outer loop
    vertex -5.196152422706634 -2.9999999999999956 0.0
    vertex -8.693332436601619 -2.329371405922675 29.999999999999996
    vertex -5.79555495773441 -1.5529142706151216 0.0
  endloop
endfacet
facet normal -0.7894826679336985 -0.6057913576471577 -0.09866077251016767
  outer loop
    vertex -7.7942286340599525 -4.499999999999993 29.999999999999996
    vertex -4.242640687119286 -4.242640687119284 0.0
    vertex -6.363961030678935 -6.363961030678921 29.999999999999996
  endloop
endfacet
facet normal -0.7894826679336985 -0.6057913576471577 -0.09866077251016767
  outer loop
    vertex -4.242640687119286 -4.242640687119284 0.0
    vertex -7.7942286340599525 -4.499999999999993 29.999999999999996
    vertex -5.196152422706634 -2.9999999999999956 0.0
  endloop
endfacet
facet normal -0.3808163674545184 -0.9193720390823523 -0.09866077251016757
  outer loop
    vertex -2.329371405922691 -8.693332436601613 29.999999999999996
    vertex -3.0000000000000027 -5.19615242270663 0.0
    vertex -1.5529142706151293 -5.795554957734408 0.0
  endloop
endfacet
facet normal -0.3808163674545184 -0.9193720390823523 -0.09866077251016757
  outer loop
    vertex -3.0000000000000027 -5.19615242270663 0.0
    vertex -2.329371405922691 -8.693332436601613 29.999999999999996
    vertex -4.500000000000011 -7.794228634059941 29.999999999999996
  endloop
endfacet
facet normal -0.6057913576471589 -0.7894826679336976 -0.09866077251016764
  outer loop
    vertex -4.500000000000011 -7.794228634059941 29.999999999999996
    vertex -4.242640687119286 -4.242640687119284 0.0
    vertex -3.0000000000000027 -5.19615242270663 0.0
  endloop
endfacet
facet normal -0.6057913576471589 -0.7894826679336976 -0.09866077251016764
  outer loop
    vertex -4.242640687119286 -4.242640687119284 0.0
    vertex -4.500000000000011 -7.794228634059941 29.999999999999996
    vertex -6.363961030678935 -6.363961030678921 29.999999999999996
  endloop
endfacet
facet normal -0.9914448613738107 -0.1305261922200507 -6.847572490532801e-18
  outer loop
    vertex -9.000000000000002 9.517386878599154e-15 33.999999999999986
    vertex -8.693332436601619 -2.329371405922675 29.999999999999996
    vertex -8.693332436601619 -2.329371405922675 33.999999999999986
  endloop
endfacet
facet normal -0.9914448613738107 -0.1305261922200507 -6.847572490532801e-18
  outer loop
    vertex -8.693332436601619 -2.329371405922675 29.999999999999996
    vertex -9.000000000000002 9.517386878599154e-15 33.999999999999986
    vertex -9.000000000000002 9.517386878599154e-15 29.999999999999996
  endloop
endfacet
facet normal -0.7933533402912359 -0.6087614290087199 0.0
  outer loop
    vertex -7.7942286340599525 -4.499999999999993 33.999999999999986
    vertex -6.363961030678935 -6.363961030678921 29.999999999999996
    vertex -6.363961030678935 -6.363961030678921 33.999999999999986
  endloop
endfacet
facet normal -0.7933533402912359 -0.6087614290087199 0.0
  outer loop
    vertex -6.363961030678935 -6.363961030678921 29.999999999999996
    vertex -7.7942286340599525 -4.499999999999993 33.999999999999986
    vertex -7.7942286340599525 -4.499999999999993 29.999999999999996
  endloop
endfacet
facet normal -0.3826834323650908 -0.9238795325112865 6.692022240838624e-18
  outer loop
    vertex -2.329371405922691 -8.693332436601613 33.999999999999986
    vertex -4.500000000000011 -7.794228634059941 29.999999999999996
    vertex -2.329371405922691 -8.693332436601613 29.999999999999996
  endloop
endfacet
facet normal -0.3826834323650908 -0.9238795325112865 6.692022240838624e-18
  outer loop
    vertex -4.500000000000011 -7.794228634059941 29.999999999999996
    vertex -2.329371405922691 -8.693332436601613 33.999999999999986
    vertex -4.500000000000011 -7.794228634059941 33.999999999999986
  endloop
endfacet
facet normal 0.1305261922200506 -0.9914448613738107 0.0
  outer loop
    vertex 2.329371405922682 -8.693332436601617 33.999999999999986
    vertex -4.229949723821845e-15 -8.999999999999998 29.999999999999996
    vertex 2.329371405922682 -8.693332436601617 29.999999999999996
  endloop
endfacet
facet normal 0.1305261922200506 -0.9914448613738107 0.0
  outer loop
    vertex -4.229949723821845e-15 -8.999999999999998 29.999999999999996
    vertex 2.329371405922682 -8.693332436601617 33.999999999999986
    vertex -4.229949723821846e-15 -8.999999999999998 33.999999999999986
  endloop
endfacet
facet normal -0.6087614290087214 -0.7933533402912347 1.5128122841963078e-31
  outer loop
    vertex -4.500000000000011 -7.794228634059941 33.999999999999986
    vertex -6.363961030678935 -6.363961030678921 29.999999999999996
    vertex -4.500000000000011 -7.794228634059941 29.999999999999996
  endloop
endfacet
facet normal -0.6087614290087214 -0.7933533402912347 1.5128122841963078e-31
  outer loop
    vertex -6.363961030678935 -6.363961030678921 29.999999999999996
    vertex -4.500000000000011 -7.794228634059941 33.999999999999986
    vertex -6.363961030678935 -6.363961030678921 33.999999999999986
  endloop
endfacet
facet normal 0.9914448613738107 0.13052619222005063 -0.0
  outer loop
    vertex 8.693332436601617 2.32937140592268 29.999999999999996
    vertex 9.0 -5.992428775414282e-15 33.999999999999986
    vertex 9.0 -5.992428775414282e-15 29.999999999999996
  endloop
endfacet
facet normal 0.9914448613738107 0.13052619222005063 -0.0
  outer loop
    vertex 9.0 -5.992428775414282e-15 33.999999999999986
    vertex 8.693332436601617 2.32937140592268 29.999999999999996
    vertex 8.693332436601617 2.32937140592268 33.999999999999986
  endloop
endfacet
facet normal 0.3826834323650895 -0.9238795325112871 8.077985426768554e-18
  outer loop
    vertex 4.499999999999997 -7.79422863405995 33.999999999999986
    vertex 2.329371405922682 -8.693332436601617 29.999999999999996
    vertex 4.499999999999997 -7.79422863405995 29.999999999999996
  endloop
endfacet
facet normal 0.3826834323650895 -0.9238795325112871 8.077985426768554e-18
  outer loop
    vertex 2.329371405922682 -8.693332436601617 29.999999999999996
    vertex 4.499999999999997 -7.79422863405995 33.999999999999986
    vertex 2.329371405922682 -8.693332436601617 33.999999999999986
  endloop
endfacet
facet normal 0.7933533402912355 0.6087614290087202 -0.0
  outer loop
    vertex 6.363961030678934 6.363961030678922 29.999999999999996
    vertex 7.794228634059951 4.499999999999996 33.999999999999986
    vertex 7.794228634059951 4.499999999999996 29.999999999999996
  endloop
endfacet
facet normal 0.7933533402912355 0.6087614290087202 -0.0
  outer loop
    vertex 7.794228634059951 4.499999999999996 33.999999999999986
    vertex 6.363961030678934 6.363961030678922 29.999999999999996
    vertex 6.363961030678934 6.363961030678922 33.999999999999986
  endloop
endfacet
facet normal -0.3826834323650895 0.9238795325112871 -4.7549677907732566e-32
  outer loop
    vertex -4.499999999999992 7.7942286340599525 33.999999999999986
    vertex -2.3293714059226804 8.693332436601617 29.999999999999996
    vertex -4.499999999999992 7.7942286340599525 29.999999999999996
  endloop
endfacet
facet normal -0.3826834323650895 0.9238795325112871 -4.7549677907732566e-32
  outer loop
    vertex -2.3293714059226804 8.693332436601617 29.999999999999996
    vertex -4.499999999999992 7.7942286340599525 33.999999999999986
    vertex -2.3293714059226804 8.693332436601617 33.999999999999986
  endloop
endfacet
facet normal 0.6087614290087213 0.7933533402912347 3.9430707062209706e-31
  outer loop
    vertex 4.500000000000007 7.7942286340599445 33.999999999999986
    vertex 6.363961030678934 6.363961030678922 29.999999999999996
    vertex 4.500000000000007 7.7942286340599445 29.999999999999996
  endloop
endfacet
facet normal 0.6087614290087213 0.7933533402912347 3.9430707062209706e-31
  outer loop
    vertex 6.363961030678934 6.363961030678922 29.999999999999996
    vertex 4.500000000000007 7.7942286340599445 33.999999999999986
    vertex 6.363961030678934 6.363961030678922 33.999999999999986
  endloop
endfacet
facet normal -0.6087614290087193 0.7933533402912363 -0.0
  outer loop
    vertex -6.363961030678922 6.363961030678935 33.999999999999986
    vertex -4.499999999999992 7.7942286340599525 29.999999999999996
    vertex -6.363961030678922 6.363961030678935 29.999999999999996
  endloop
endfacet
facet normal -0.6087614290087193 0.7933533402912363 -0.0
  outer loop
    vertex -4.499999999999992 7.7942286340599525 29.999999999999996
    vertex -6.363961030678922 6.363961030678935 33.999999999999986
    vertex -4.499999999999992 7.7942286340599525 33.999999999999986
  endloop
endfacet
facet normal -0.9914448613738103 0.1305261922200525 -2.282524163510492e-18
  outer loop
    vertex -8.693332436601615 2.3293714059226938 33.999999999999986
    vertex -9.000000000000002 9.517386878599154e-15 29.999999999999996
    vertex -9.000000000000002 9.517386878599154e-15 33.999999999999986
  endloop
endfacet
facet normal -0.9914448613738103 0.1305261922200525 -2.282524163510492e-18
  outer loop
    vertex -9.000000000000002 9.517386878599154e-15 29.999999999999996
    vertex -8.693332436601615 2.3293714059226938 33.999999999999986
    vertex -8.693332436601615 2.3293714059226938 29.999999999999996
  endloop
endfacet
facet normal -0.7933533402912349 0.6087614290087212 3.0256245683926142e-31
  outer loop
    vertex -6.363961030678922 6.363961030678935 33.999999999999986
    vertex -7.794228634059943 4.50000000000001 29.999999999999996
    vertex -7.794228634059943 4.50000000000001 33.999999999999986
  endloop
endfacet
facet normal -0.7933533402912349 0.6087614290087212 3.0256245683926142e-31
  outer loop
    vertex -7.794228634059943 4.50000000000001 29.999999999999996
    vertex -6.363961030678922 6.363961030678935 33.999999999999986
    vertex -6.363961030678922 6.363961030678935 29.999999999999996
  endloop
endfacet
facet normal 0.13052619222005246 0.9914448613738103 -4.927611684701914e-31
  outer loop
    vertex 8.107403637325205e-15 9.0 33.999999999999986
    vertex 2.3293714059226924 8.693332436601613 29.999999999999996
    vertex 8.107403637325205e-15 9.0 29.999999999999996
  endloop
endfacet
facet normal 0.13052619222005246 0.9914448613738103 -4.927611684701914e-31
  outer loop
    vertex 2.3293714059226924 8.693332436601613 29.999999999999996
    vertex 8.107403637325205e-15 9.0 33.999999999999986
    vertex 2.3293714059226924 8.693332436601613 33.999999999999986
  endloop
endfacet
facet normal -0.1305261922200505 0.9914448613738107 -0.0
  outer loop
    vertex -2.3293714059226804 8.693332436601617 33.999999999999986
    vertex 8.107403637325205e-15 9.0 29.999999999999996
    vertex -2.3293714059226804 8.693332436601617 29.999999999999996
  endloop
endfacet
facet normal -0.1305261922200505 0.9914448613738107 -0.0
  outer loop
    vertex 8.107403637325205e-15 9.0 29.999999999999996
    vertex -2.3293714059226804 8.693332436601617 33.999999999999986
    vertex 8.107403637325205e-15 9.0 33.999999999999986
  endloop
endfacet
facet normal -0.9238795325112862 0.38268343236509117 4.591803091652812e-31
  outer loop
    vertex -7.794228634059943 4.50000000000001 33.999999999999986
    vertex -8.693332436601615 2.3293714059226938 29.999999999999996
    vertex -8.693332436601615 2.3293714059226938 33.999999999999986
  endloop
endfacet
facet normal -0.9238795325112862 0.38268343236509117 4.591803091652812e-31
  outer loop
    vertex -8.693332436601615 2.3293714059226938 29.999999999999996
    vertex -7.794228634059943 4.50000000000001 33.999999999999986
    vertex -7.794228634059943 4.50000000000001 29.999999999999996
  endloop
endfacet
facet normal -0.08196592755108792 -0.622593031299507 0.7782412891243828
  outer loop
    vertex -4.229949723821846e-15 -8.999999999999998 33.999999999999986
    vertex -1.6823237931663881 -6.278517870878944 35.999999999999986
    vertex -2.329371405922691 -8.693332436601613 33.999999999999986
  endloop
endfacet
facet normal -0.08196592755108792 -0.622593031299507 0.7782412891243828
  outer loop
    vertex -1.6823237931663881 -6.278517870878944 35.999999999999986
    vertex -4.229949723821846e-15 -8.999999999999998 33.999999999999986
    vertex 2.4674706722294114e-15 -6.500000000000001 35.999999999999986
  endloop
endfacet
facet normal 0.08196592755108746 -0.622593031299507 0.7782412891243828
  outer loop
    vertex 2.329371405922682 -8.693332436601617 33.999999999999986
    vertex 2.4674706722294114e-15 -6.500000000000001 35.999999999999986
    vertex -4.229949723821846e-15 -8.999999999999998 33.999999999999986
  endloop
endfacet
facet normal 0.08196592755108746 -0.622593031299507 0.7782412891243828
  outer loop
    vertex 2.4674706722294114e-15 -6.500000000000001 35.999999999999986
    vertex 2.329371405922682 -8.693332436601617 33.999999999999986
    vertex 1.6823237931663857 -6.278517870878944 35.999999999999986
  endloop
endfacet
facet normal 0.24031194014575633 -0.5801643451000773 0.7782412891243826
  outer loop
    vertex 2.329371405922682 -8.693332436601617 33.999999999999986
    vertex 3.2499999999999996 -5.629165124598853 35.999999999999986
    vertex 1.6823237931663857 -6.278517870878944 35.999999999999986
  endloop
endfacet
facet normal 0.24031194014575633 -0.5801643451000773 0.7782412891243826
  outer loop
    vertex 3.2499999999999996 -5.629165124598853 35.999999999999986
    vertex 2.329371405922682 -8.693332436601617 33.999999999999986
    vertex 4.499999999999997 -7.79422863405995 33.999999999999986
  endloop
endfacet
facet normal 0.38228109115374986 -0.49819841754898936 0.7782412891243828
  outer loop
    vertex 4.499999999999997 -7.79422863405995 33.999999999999986
    vertex 4.596194077712562 -4.596194077712558 35.999999999999986
    vertex 3.2499999999999996 -5.629165124598853 35.999999999999986
  endloop
endfacet
facet normal 0.38228109115374986 -0.49819841754898936 0.7782412891243828
  outer loop
    vertex 4.596194077712562 -4.596194077712558 35.999999999999986
    vertex 4.499999999999997 -7.79422863405995 33.999999999999986
    vertex 6.363961030678927 -6.363961030678932 33.999999999999986
  endloop
endfacet
facet normal 0.4981984175489892 -0.3822810911537503 0.7782412891243828
  outer loop
    vertex 6.363961030678927 -6.363961030678932 33.999999999999986
    vertex 5.629165124598853 -3.250000000000001 35.999999999999986
    vertex 4.596194077712562 -4.596194077712558 35.999999999999986
  endloop
endfacet
facet normal 0.4981984175489892 -0.3822810911537503 0.7782412891243828
  outer loop
    vertex 5.629165124598853 -3.250000000000001 35.999999999999986
    vertex 6.363961030678927 -6.363961030678932 33.999999999999986
    vertex 7.794228634059945 -4.500000000000006 33.999999999999986
  endloop
endfacet
facet normal 0.5801643451000771 -0.240311940145757 0.7782412891243827
  outer loop
    vertex 7.794228634059945 -4.500000000000006 33.999999999999986
    vertex 6.278517870878945 -1.6823237931663875 35.999999999999986
    vertex 5.629165124598853 -3.250000000000001 35.999999999999986
  endloop
endfacet
facet normal 0.5801643451000771 -0.240311940145757 0.7782412891243827
  outer loop
    vertex 6.278517870878945 -1.6823237931663875 35.999999999999986
    vertex 7.794228634059945 -4.500000000000006 33.999999999999986
    vertex 8.693332436601615 -2.3293714059226924 33.999999999999986
  endloop
endfacet
facet normal 0.6225930312995068 -0.08196592755108797 0.7782412891243828
  outer loop
    vertex 8.693332436601615 -2.3293714059226924 33.999999999999986
    vertex 6.500000000000002 1.4099832412739485e-15 35.999999999999986
    vertex 6.278517870878945 -1.6823237931663875 35.999999999999986
  endloop
endfacet
facet normal 0.6225930312995068 -0.08196592755108797 0.7782412891243828
  outer loop
    vertex 6.500000000000002 1.4099832412739485e-15 35.999999999999986
    vertex 8.693332436601615 -2.3293714059226924 33.999999999999986
    vertex 9.0 -5.992428775414282e-15 33.999999999999986
  endloop
endfacet
facet normal 0.622593031299507 0.08196592755108746 0.7782412891243826
  outer loop
    vertex 6.500000000000002 1.4099832412739485e-15 35.999999999999986
    vertex 8.693332436601617 2.32937140592268 33.999999999999986
    vertex 6.278517870878946 1.6823237931663846 35.999999999999986
  endloop
endfacet
facet normal 0.622593031299507 0.08196592755108746 0.7782412891243826
  outer loop
    vertex 8.693332436601617 2.32937140592268 33.999999999999986
    vertex 6.500000000000002 1.4099832412739485e-15 35.999999999999986
    vertex 9.0 -5.992428775414282e-15 33.999999999999986
  endloop
endfacet
facet normal 0.5801643451000771 0.2403119401457565 0.7782412891243828
  outer loop
    vertex 6.278517870878946 1.6823237931663846 35.999999999999986
    vertex 7.794228634059951 4.499999999999996 33.999999999999986
    vertex 5.629165124598852 3.2500000000000004 35.999999999999986
  endloop
endfacet
facet normal 0.5801643451000771 0.2403119401457565 0.7782412891243828
  outer loop
    vertex 7.794228634059951 4.499999999999996 33.999999999999986
    vertex 6.278517870878946 1.6823237931663846 35.999999999999986
    vertex 8.693332436601617 2.32937140592268 33.999999999999986
  endloop
endfacet
facet normal 0.49819841754898936 0.38228109115375014 0.7782412891243828
  outer loop
    vertex 5.629165124598852 3.2500000000000004 35.999999999999986
    vertex 6.363961030678934 6.363961030678922 33.999999999999986
    vertex 4.5961940777125605 4.596194077712559 35.999999999999986
  endloop
endfacet
facet normal 0.49819841754898936 0.38228109115375014 0.7782412891243828
  outer loop
    vertex 6.363961030678934 6.363961030678922 33.999999999999986
    vertex 5.629165124598852 3.2500000000000004 35.999999999999986
    vertex 7.794228634059951 4.499999999999996 33.999999999999986
  endloop
endfacet
facet normal 0.3822810911537507 0.49819841754898914 0.7782412891243828
  outer loop
    vertex 4.5961940777125605 4.596194077712559 35.999999999999986
    vertex 4.500000000000007 7.7942286340599445 33.999999999999986
    vertex 3.250000000000001 5.629165124598852 35.999999999999986
  endloop
endfacet
facet normal 0.3822810911537507 0.49819841754898914 0.7782412891243828
  outer loop
    vertex 4.500000000000007 7.7942286340599445 33.999999999999986
    vertex 4.5961940777125605 4.596194077712559 35.999999999999986
    vertex 6.363961030678934 6.363961030678922 33.999999999999986
  endloop
endfacet
facet normal 0.24031194014575685 0.5801643451000771 0.7782412891243828
  outer loop
    vertex 3.250000000000001 5.629165124598852 35.999999999999986
    vertex 2.3293714059226924 8.693332436601613 33.999999999999986
    vertex 1.6823237931663875 6.278517870878944 35.999999999999986
  endloop
endfacet
facet normal 0.24031194014575685 0.5801643451000771 0.7782412891243828
  outer loop
    vertex 2.3293714059226924 8.693332436601613 33.999999999999986
    vertex 3.250000000000001 5.629165124598852 35.999999999999986
    vertex 4.500000000000007 7.7942286340599445 33.999999999999986
  endloop
endfacet
facet normal 0.08196592755108828 0.6225930312995067 0.7782412891243828
  outer loop
    vertex 1.6823237931663875 6.278517870878944 35.999999999999986
    vertex 8.107403637325205e-15 9.0 33.999999999999986
    vertex 1.40998324127395e-15 6.500000000000001 35.999999999999986
  endloop
endfacet
facet normal 0.08196592755108828 0.6225930312995067 0.7782412891243828
  outer loop
    vertex 8.107403637325205e-15 9.0 33.999999999999986
    vertex 1.6823237931663875 6.278517870878944 35.999999999999986
    vertex 2.3293714059226924 8.693332436601613 33.999999999999986
  endloop
endfacet
facet normal -0.08196592755108718 0.6225930312995069 0.778241289124383
  outer loop
    vertex -1.6823237931663846 6.278517870878945 35.999999999999986
    vertex 8.107403637325205e-15 9.0 33.999999999999986
    vertex -2.3293714059226804 8.693332436601617 33.999999999999986
  endloop
endfacet
facet normal -0.08196592755108718 0.6225930312995069 0.778241289124383
  outer loop
    vertex 8.107403637325205e-15 9.0 33.999999999999986
    vertex -1.6823237931663846 6.278517870878945 35.999999999999986
    vertex 1.40998324127395e-15 6.500000000000001 35.999999999999986
  endloop
endfacet
facet normal -0.2403119401457564 0.580164345100077 0.7782412891243828
  outer loop
    vertex -3.2499999999999982 5.629165124598853 35.999999999999986
    vertex -2.3293714059226804 8.693332436601617 33.999999999999986
    vertex -4.499999999999992 7.7942286340599525 33.999999999999986
  endloop
endfacet
facet normal -0.2403119401457564 0.580164345100077 0.7782412891243828
  outer loop
    vertex -2.3293714059226804 8.693332436601617 33.999999999999986
    vertex -3.2499999999999982 5.629165124598853 35.999999999999986
    vertex -1.6823237931663846 6.278517870878945 35.999999999999986
  endloop
endfacet
facet normal -0.3822810911537497 0.4981984175489895 0.7782412891243828
  outer loop
    vertex -4.596194077712559 4.5961940777125605 35.999999999999986
    vertex -4.499999999999992 7.7942286340599525 33.999999999999986
    vertex -6.363961030678922 6.363961030678935 33.999999999999986
  endloop
endfacet
facet normal -0.3822810911537497 0.4981984175489895 0.7782412891243828
  outer loop
    vertex -4.499999999999992 7.7942286340599525 33.999999999999986
    vertex -4.596194077712559 4.5961940777125605 35.999999999999986
    vertex -3.2499999999999982 5.629165124598853 35.999999999999986
  endloop
endfacet
facet normal -0.498198417548989 0.3822810911537508 0.7782412891243828
  outer loop
    vertex -5.629165124598852 3.2500000000000027 35.999999999999986
    vertex -6.363961030678922 6.363961030678935 33.999999999999986
    vertex -7.794228634059943 4.50000000000001 33.999999999999986
  endloop
endfacet
facet normal -0.498198417548989 0.3822810911537508 0.7782412891243828
  outer loop
    vertex -6.363961030678922 6.363961030678935 33.999999999999986
    vertex -5.629165124598852 3.2500000000000027 35.999999999999986
    vertex -4.596194077712559 4.5961940777125605 35.999999999999986
  endloop
endfacet
facet normal -0.5801643451000769 0.24031194014575727 0.7782412891243826
  outer loop
    vertex -6.278517870878945 1.6823237931663881 35.999999999999986
    vertex -7.794228634059943 4.50000000000001 33.999999999999986
    vertex -8.693332436601615 2.3293714059226938 33.999999999999986
  endloop
endfacet
facet normal -0.5801643451000769 0.24031194014575727 0.7782412891243826
  outer loop
    vertex -7.794228634059943 4.50000000000001 33.999999999999986
    vertex -6.278517870878945 1.6823237931663881 35.999999999999986
    vertex -5.629165124598852 3.2500000000000027 35.999999999999986
  endloop
endfacet
facet normal -0.6225930312995068 0.08196592755108832 0.7782412891243828
  outer loop
    vertex -6.500000000000002 2.46747067222941e-15 35.999999999999986
    vertex -8.693332436601615 2.3293714059226938 33.999999999999986
    vertex -9.000000000000002 9.517386878599154e-15 33.999999999999986
  endloop
endfacet
facet normal -0.6225930312995068 0.08196592755108832 0.7782412891243828
  outer loop
    vertex -8.693332436601615 2.3293714059226938 33.999999999999986
    vertex -6.500000000000002 2.46747067222941e-15 35.999999999999986
    vertex -6.278517870878945 1.6823237931663881 35.999999999999986
  endloop
endfacet
facet normal -0.6225930312995069 -0.08196592755108742 0.7782412891243828
  outer loop
    vertex -8.693332436601619 -2.329371405922675 33.999999999999986
    vertex -6.500000000000002 2.46747067222941e-15 35.999999999999986
    vertex -9.000000000000002 9.517386878599154e-15 33.999999999999986
  endloop
endfacet
facet normal -0.6225930312995069 -0.08196592755108742 0.7782412891243828
  outer loop
    vertex -6.500000000000002 2.46747067222941e-15 35.999999999999986
    vertex -8.693332436601619 -2.329371405922675 33.999999999999986
    vertex -6.278517870878946 -1.6823237931663821 35.999999999999986
  endloop
endfacet
facet normal -0.5801643451000772 -0.2403119401457562 0.7782412891243828
  outer loop
    vertex -7.7942286340599525 -4.499999999999993 33.999999999999986
    vertex -6.278517870878946 -1.6823237931663821 35.999999999999986
    vertex -8.693332436601619 -2.329371405922675 33.999999999999986
  endloop
endfacet
facet normal -0.5801643451000772 -0.2403119401457562 0.7782412891243828
  outer loop
    vertex -6.278517870878946 -1.6823237931663821 35.999999999999986
    vertex -7.7942286340599525 -4.499999999999993 33.999999999999986
    vertex -5.629165124598854 -3.249999999999998 35.999999999999986
  endloop
endfacet
facet normal -0.49819841754898947 -0.38228109115374986 0.7782412891243828
  outer loop
    vertex -6.363961030678935 -6.363961030678921 33.999999999999986
    vertex -5.629165124598854 -3.249999999999998 35.999999999999986
    vertex -7.7942286340599525 -4.499999999999993 33.999999999999986
  endloop
endfacet
facet normal -0.49819841754898947 -0.38228109115374986 0.7782412891243828
  outer loop
    vertex -5.629165124598854 -3.249999999999998 35.999999999999986
    vertex -6.363961030678935 -6.363961030678921 33.999999999999986
    vertex -4.596194077712562 -4.596194077712558 35.999999999999986
  endloop
endfacet
facet normal -0.38228109115375075 -0.498198417548989 0.7782412891243826
  outer loop
    vertex -4.500000000000011 -7.794228634059941 33.999999999999986
    vertex -4.596194077712562 -4.596194077712558 35.999999999999986
    vertex -6.363961030678935 -6.363961030678921 33.999999999999986
  endloop
endfacet
facet normal -0.38228109115375075 -0.498198417548989 0.7782412891243826
  outer loop
    vertex -4.596194077712562 -4.596194077712558 35.999999999999986
    vertex -4.500000000000011 -7.794228634059941 33.999999999999986
    vertex -3.250000000000004 -5.629165124598851 35.999999999999986
  endloop
endfacet
facet normal -0.24031194014575716 -0.5801643451000771 0.7782412891243827
  outer loop
    vertex -2.329371405922691 -8.693332436601613 33.999999999999986
    vertex -3.250000000000004 -5.629165124598851 35.999999999999986
    vertex -4.500000000000011 -7.794228634059941 33.999999999999986
  endloop
endfacet
facet normal -0.24031194014575716 -0.5801643451000771 0.7782412891243827
  outer loop
    vertex -3.250000000000004 -5.629165124598851 35.999999999999986
    vertex -2.329371405922691 -8.693332436601613 33.999999999999986
    vertex -1.6823237931663881 -6.278517870878944 35.999999999999986
  endloop
endfacet
facet normal -0.9238795325112871 -0.38268343236508895 -2.1462029908446775e-17
  outer loop
    vertex -8.693332436601619 -2.329371405922675 33.999999999999986
    vertex -7.7942286340599525 -4.499999999999993 29.999999999999996
    vertex -7.7942286340599525 -4.499999999999993 33.999999999999986
  endloop
endfacet
facet normal -0.9238795325112871 -0.38268343236508895 -2.1462029908446775e-17
  outer loop
    vertex -7.7942286340599525 -4.499999999999993 29.999999999999996
    vertex -8.693332436601619 -2.329371405922675 33.999999999999986
    vertex -8.693332436601619 -2.329371405922675 29.999999999999996
  endloop
endfacet
facet normal 0.6087614290087197 -0.7933533402912362 0.0
  outer loop
    vertex 6.363961030678927 -6.363961030678932 33.999999999999986
    vertex 4.499999999999997 -7.79422863405995 29.999999999999996
    vertex 6.363961030678927 -6.363961030678932 29.999999999999996
  endloop
endfacet
facet normal 0.6087614290087197 -0.7933533402912362 0.0
  outer loop
    vertex 4.499999999999997 -7.79422863405995 29.999999999999996
    vertex 6.363961030678927 -6.363961030678932 33.999999999999986
    vertex 4.499999999999997 -7.79422863405995 33.999999999999986
  endloop
endfacet
facet normal 0.7933533402912354 -0.6087614290087207 -1.3873446690025622e-17
  outer loop
    vertex 7.794228634059945 -4.500000000000006 29.999999999999996
    vertex 6.363961030678927 -6.363961030678932 33.999999999999986
    vertex 6.363961030678927 -6.363961030678932 29.999999999999996
  endloop
endfacet
facet normal 0.7933533402912354 -0.6087614290087207 -1.3873446690025622e-17
  outer loop
    vertex 6.363961030678927 -6.363961030678932 33.999999999999986
    vertex 7.794228634059945 -4.500000000000006 29.999999999999996
    vertex 7.794228634059945 -4.500000000000006 33.999999999999986
  endloop
endfacet
facet normal 0.9238795325112865 -0.3826834323650907 1.3384044481677825e-17
  outer loop
    vertex 8.693332436601615 -2.3293714059226924 29.999999999999996
    vertex 7.794228634059945 -4.500000000000006 33.999999999999986
    vertex 7.794228634059945 -4.500000000000006 29.999999999999996
  endloop
endfacet
facet normal 0.9238795325112865 -0.3826834323650907 1.3384044481677825e-17
  outer loop
    vertex 7.794228634059945 -4.500000000000006 33.999999999999986
    vertex 8.693332436601615 -2.3293714059226924 29.999999999999996
    vertex 8.693332436601615 -2.3293714059226924 33.999999999999986
  endloop
endfacet
facet normal -0.13052619222005174 -0.9914448613738105 0.0
  outer loop
    vertex -4.229949723821846e-15 -8.999999999999998 33.999999999999986
    vertex -2.329371405922691 -8.693332436601613 29.999999999999996
    vertex -4.229949723821845e-15 -8.999999999999998 29.999999999999996
  endloop
endfacet
facet normal -0.13052619222005174 -0.9914448613738105 0.0
  outer loop
    vertex -2.329371405922691 -8.693332436601613 29.999999999999996
    vertex -4.229949723821846e-15 -8.999999999999998 33.999999999999986
    vertex -2.329371405922691 -8.693332436601613 33.999999999999986
  endloop
endfacet
facet normal 0.9914448613738105 -0.13052619222005177 6.847572490532859e-18
  outer loop
    vertex 9.0 -5.992428775414282e-15 29.999999999999996
    vertex 8.693332436601615 -2.3293714059226924 33.999999999999986
    vertex 8.693332436601615 -2.3293714059226924 29.999999999999996
  endloop
endfacet
facet normal 0.9914448613738105 -0.13052619222005177 6.847572490532859e-18
  outer loop
    vertex 8.693332436601615 -2.3293714059226924 33.999999999999986
    vertex 9.0 -5.992428775414282e-15 29.999999999999996
    vertex 9.0 -5.992428775414282e-15 33.999999999999986
  endloop
endfacet
facet normal 0.9238795325112871 0.38268343236508917 1.4770007667607704e-17
  outer loop
    vertex 7.794228634059951 4.499999999999996 29.999999999999996
    vertex 8.693332436601617 2.32937140592268 33.999999999999986
    vertex 8.693332436601617 2.32937140592268 29.999999999999996
  endloop
endfacet
facet normal 0.9238795325112871 0.38268343236508917 1.4770007667607704e-17
  outer loop
    vertex 8.693332436601617 2.32937140592268 33.999999999999986
    vertex 7.794228634059951 4.499999999999996 29.999999999999996
    vertex 7.794228634059951 4.499999999999996 33.999999999999986
  endloop
endfacet
facet normal 0.3826834323650905 0.9238795325112865 4.591803091652814e-31
  outer loop
    vertex 2.3293714059226924 8.693332436601613 33.999999999999986
    vertex 4.500000000000007 7.7942286340599445 29.999999999999996
    vertex 2.3293714059226924 8.693332436601613 29.999999999999996
  endloop
endfacet
facet normal 0.3826834323650905 0.9238795325112865 4.591803091652814e-31
  outer loop
    vertex 4.500000000000007 7.7942286340599445 29.999999999999996
    vertex 2.3293714059226924 8.693332436601613 33.999999999999986
    vertex 4.500000000000007 7.7942286340599445 33.999999999999986
  endloop
endfacet
endsolid Untitled-5672cfe2
